<svg width="294" height="198" viewBox="0 0 294 198" fill="none" xmlns="http://www.w3.org/2000/svg">
<g filter="url(#filter0_f_130_1159)">
<path d="M283.422 84.0782C283.422 59.46 259.472 39.4771 229.914 39.4771C227.578 39.4771 225.28 39.6329 222.983 39.8667C218.465 26.1942 205.497 14.8978 187.856 11.2363C165.581 6.56192 143.072 15.5211 132.83 31.7255C129.053 29.8558 124.886 28.3756 120.407 27.4407C95.6008 22.2599 70.4826 34.8028 64.2518 55.4478L64.1739 55.6815C62.6941 55.2141 61.2143 54.8246 59.6566 54.474C38.277 49.9944 16.5858 60.8233 11.2117 78.6638C5.83762 96.4652 18.8446 114.539 40.2241 119.019C40.4578 119.058 40.6914 119.097 40.9251 119.175C39.6789 121.278 38.7832 123.576 38.199 125.992C34.5384 141.339 46.4939 156.219 64.9139 159.257C70.95 160.27 76.9082 159.842 82.3601 158.322C87.189 171.489 99.9234 182.317 117.136 185.901C136.763 189.991 156.585 183.564 167.995 170.904C171.111 172.19 174.421 173.241 177.926 173.982C203.55 179.357 229.525 166.386 235.95 145.001C237.664 139.352 237.781 133.704 236.652 128.29C263.016 125.524 283.422 106.788 283.422 84.0393V84.0782Z" fill="url(#paint0_linear_130_1159)" fill-opacity="0.7" style="mix-blend-mode:screen"/>
</g>
<defs>
<filter id="filter0_f_130_1159" x="0" y="0" width="293.422" height="197.127" filterUnits="userSpaceOnUse" color-interpolation-filters="sRGB">
<feFlood flood-opacity="0" result="BackgroundImageFix"/>
<feBlend mode="normal" in="SourceGraphic" in2="BackgroundImageFix" result="shape"/>
<feGaussianBlur stdDeviation="5" result="effect1_foregroundBlur_130_1159"/>
</filter>
<linearGradient id="paint0_linear_130_1159" x1="146.733" y1="187.148" x2="146.733" y2="9.95082" gradientUnits="userSpaceOnUse">
<stop offset="0.399038" stop-color="white" stop-opacity="0"/>
<stop offset="1" stop-color="white"/>
</linearGradient>
</defs>
</svg>
