<svg width="27" height="16" viewBox="0 0 27 16" fill="none" xmlns="http://www.w3.org/2000/svg">
<path d="M26.9996 6.91895H26.9188C24.2778 6.89703 22.4253 5.78736 21.1422 4.37297C19.8197 2.91505 19.1235 1.14753 18.8972 0L16.6343 0.393505C16.921 1.84698 17.7636 3.981 19.3904 5.77434C19.7552 6.17649 20.1604 6.56212 20.6077 6.91895H0V9.08H20.6105C20.1627 9.43709 19.757 9.82313 19.3919 10.2257C17.7651 12.019 16.9225 14.153 16.6359 15.6065L18.8987 16C19.125 14.8524 19.8212 13.0849 21.1438 11.6271C22.4397 10.1985 24.3165 9.08073 27 9.08073L26.9996 6.91895Z" fill="white"/>
</svg>
