<svg width="24" height="24" viewBox="0 0 24 24" fill="none" xmlns="http://www.w3.org/2000/svg">
<circle cx="12" cy="12" r="11.5" stroke="white"/>
<path d="M13.4389 5.55556L12.9589 13.8222H11.0566L10.5766 5.55556H13.4389ZM11.9989 18.1244C11.5722 18.1244 11.2107 17.9881 10.9144 17.7156C10.63 17.4311 10.4877 17.0874 10.4877 16.6844C10.4877 16.2696 10.63 15.9319 10.9144 15.6711C11.1989 15.3985 11.5603 15.2622 11.9989 15.2622C12.4374 15.2622 12.7989 15.3985 13.0833 15.6711C13.3796 15.9319 13.5277 16.2696 13.5277 16.6844C13.5277 17.0874 13.3796 17.4311 13.0833 17.7156C12.7989 17.9881 12.4374 18.1244 11.9989 18.1244Z" fill="white"/>
</svg>
