<svg width="156" height="60" viewBox="0 0 156 60" fill="none" xmlns="http://www.w3.org/2000/svg">
<g clip-path="url(#clip0_130_1173)">
<path fill-rule="evenodd" clip-rule="evenodd" d="M22.8032 25.2888C23.2451 25.2888 23.1898 25.0409 23.1898 24.5728V22.3008C23.1898 21.8327 23.1484 21.6812 23.4177 21.6812C24.3567 21.6812 24.6121 21.5917 24.6121 20.7655V12.318C24.6121 10.0185 22.9827 10.3972 22.527 9.55727C21.8711 8.4213 23.7491 8.4213 23.0656 5.95658C22.893 5.39892 22.458 5.05469 21.6088 5.05469C20.7596 5.05469 20.3246 5.39892 20.152 5.95658C19.4754 8.4213 21.3464 8.4213 20.6905 9.55727C20.228 10.3972 18.6055 10.0185 18.6055 12.318V20.7655C18.6055 21.5986 18.8609 21.6812 19.7999 21.6812C20.0623 21.6812 20.0208 21.8327 20.0208 22.3008V24.5728C20.0208 25.0409 19.9656 25.2888 20.4075 25.2888H22.8101" fill="#0072BC"/>
<path fill-rule="evenodd" clip-rule="evenodd" d="M15.3893 6.9673C14.5539 7.84854 13.2421 9.91394 14.0982 11.6282C15.845 12.296 15.7138 6.10671 17.8886 6.21687C18.9657 7.20826 17.5641 10.1343 17.1361 11.4148C16.5976 12.9983 16.1695 16.3236 15.1477 17.9277C14.2916 19.2702 14.9337 23.4768 14.6644 24.9225C13.9395 25.6454 11.9787 25.136 11.1433 24.9983C11.1433 23.3391 10.9223 22.0241 10.66 19.3735C10.6323 18.8365 10.0662 10.6368 10.5288 9.64544C11.4678 7.58003 16.6045 3.642 17.3018 2.89157C17.9163 2.22375 20.0911 0 20.9265 0C21.5133 0.406196 21.1681 1.34251 21.037 1.71429C20.2015 3.77969 16.6045 5.81067 15.3893 6.9673Z" fill="#0072BC"/>
<path fill-rule="evenodd" clip-rule="evenodd" d="M27.9137 6.9673C28.7146 7.84854 30.0402 9.91394 29.2048 11.6282C27.4304 12.296 27.5685 6.10671 25.3868 6.21687C24.3442 7.20826 25.7389 10.1343 26.1669 11.4148C26.7055 12.9983 27.1335 16.3236 28.1553 17.9277C28.9907 19.2702 28.3694 23.4768 28.611 24.9225C29.3636 25.6454 31.2967 25.136 32.1598 24.9983C32.1598 23.3391 32.3462 22.0241 32.6154 19.3735C32.6707 18.8365 33.2299 10.6368 32.7742 9.64544C31.8353 7.58003 26.7055 3.642 26.0012 2.89157C25.3592 2.22375 23.205 0 22.3696 0C21.7552 0.406196 22.128 1.34251 22.2661 1.71429C23.1015 3.77969 26.6986 5.81067 27.9137 6.9673Z" fill="#0072BC"/>
<path fill-rule="evenodd" clip-rule="evenodd" d="M7.92795 4.18376C7.47227 4.6175 6.44355 4.90665 5.74622 5.84297C5.47696 5.3335 6.17428 4.10115 7.00969 3.37825C7.62416 2.86879 8.8393 2.03574 9.19141 1.95312C9.46067 2.57275 8.49409 3.50906 7.92795 4.18376Z" fill="#0072BC"/>
<path fill-rule="evenodd" clip-rule="evenodd" d="M6.49736 7.54838C5.71718 8.27127 4.88178 8.56731 3.80472 9.88229C3.34905 8.29881 3.45261 6.90122 3.66664 5.95802C4.04637 4.72566 4.66084 3.35561 5.71718 2.92188C5.50315 3.62411 5.15104 4.58797 5.06819 5.90294C4.61251 7.69984 4.34325 7.75492 4.44681 7.99588C4.55038 7.99588 5.14414 7.05268 5.87598 6.32979C6.739 5.46921 7.81605 5.28332 8.51338 4.77385C8.40981 5.12497 7.78844 6.21964 6.49736 7.5415" fill="#0072BC"/>
<path fill-rule="evenodd" clip-rule="evenodd" d="M2.69978 14.9778C1.65035 13.0983 1.53988 11.7282 1.45703 10.1447C1.51226 9.04318 2.05079 6.49584 2.85858 6.11719C2.61693 8.42356 3.23831 8.63698 2.98976 10.544C2.98976 10.6473 2.7205 12.637 2.7205 12.7471C3.04499 12.6921 2.74811 10.9227 6.43495 8.36848C5.63406 9.76607 6.00689 10.1929 4.55011 12.0518C2.85858 13.7179 2.61003 15.3495 2.69978 14.9778Z" fill="#0072BC"/>
<path fill-rule="evenodd" clip-rule="evenodd" d="M4.18554 16.7549C3.40537 17.884 3.53655 18.4485 3.35014 18.9786C1.48601 17.9046 -0.612865 13.643 0.167308 11.5156C0.657505 13.1266 1.32721 13.4778 1.8105 14.8203C2.64591 16.8375 2.51473 17.4502 3.04635 17.9046C2.93588 16.8581 3.288 15.6189 3.64011 14.7101C4.15102 13.9321 4.55146 12.9132 4.93119 12.5621C5.33164 14.0423 5.03476 15.2471 4.17864 16.7549" fill="#0072BC"/>
<path fill-rule="evenodd" clip-rule="evenodd" d="M5.84838 20.4094C5.84838 22.048 5.5515 22.7709 5.41342 23.9826C2.20988 22.9361 0.539062 19.2872 0.539062 17.4834C1.51255 19.6865 2.93481 19.659 4.79894 22.7709C4.95774 21.5867 4.47445 22.4748 4.41921 20.2442C4.47445 17.9103 4.95774 17.8277 5.03369 16.375C5.62745 17.0153 5.84147 19.597 5.84147 20.4025" fill="#0072BC"/>
<path fill-rule="evenodd" clip-rule="evenodd" d="M8.51248 25.0553C8.75413 26.267 8.86459 27.6852 9.05101 28.7386C7.2214 28.0708 6.75882 28.5802 4.584 27.2102C3.5829 26.6732 1.80852 24.4219 1.91899 22.804C4.07309 25.193 4.44592 24.9314 5.49535 25.8126C6.46194 26.5906 7.24211 27.7472 7.94634 27.5888C7.99467 26.9417 6.35838 25.5441 6.57241 21.5234C7.00047 21.9778 8.18798 23.8023 8.51248 25.0622" fill="#0072BC"/>
<path fill-rule="evenodd" clip-rule="evenodd" d="M12.1506 28.0616C12.7168 28.8671 12.5856 29.2182 14.0355 30.8774C13.6834 31.0357 11.6121 31.5796 10.2313 31.6278C9.31993 31.6278 6.08877 30.7672 5.01172 28.5641C6.86894 29.5555 6.89656 29.3146 9.36826 29.8516C11.1495 30.2509 12.413 30.8154 12.8963 30.7672C12.7858 30.5263 11.4188 29.9617 10.4729 28.7776C9.52705 27.5177 9.74799 26.0925 8.90568 25.0461C9.47182 24.8877 11.6812 27.4626 12.1368 28.0547" fill="#0072BC"/>
<path fill-rule="evenodd" clip-rule="evenodd" d="M35.2239 4.18376C35.6519 4.6175 36.7083 4.90665 37.378 5.84297C37.6749 5.3335 36.9499 4.10115 36.1145 3.37825C35.5277 2.86879 34.3125 2.03574 33.9328 1.95312C33.6635 2.57275 34.637 3.50906 35.2239 4.18376Z" fill="#0072BC"/>
<path fill-rule="evenodd" clip-rule="evenodd" d="M36.653 7.54838C37.4056 8.27127 38.241 8.56731 39.318 9.88229C39.7806 8.29881 39.6701 6.90122 39.4561 5.95802C39.104 4.72566 38.455 3.35561 37.4056 2.92188C37.6472 3.62411 37.9717 4.58797 38.0546 5.90294C38.5102 7.69984 38.7795 7.75492 38.6759 7.99588C38.5655 7.99588 37.9786 7.05268 37.2468 6.32979C36.4114 5.46921 35.3343 5.28332 34.6094 4.77385C34.7198 5.12497 35.3619 6.21964 36.653 7.5415" fill="#0072BC"/>
<path fill-rule="evenodd" clip-rule="evenodd" d="M40.4245 14.9778C41.5015 13.0983 41.5775 11.7282 41.6603 10.1447C41.6051 9.04318 41.0666 6.49584 40.2864 6.11719C40.5004 8.42356 39.879 8.63698 40.1483 10.544C40.1483 10.6473 40.39 12.637 40.39 12.7471C40.0931 12.6921 40.3623 10.9227 36.7031 8.36848C37.4833 9.76607 37.1036 10.1929 38.5603 12.0518C40.2864 13.7179 40.5004 15.3495 40.4176 14.9778" fill="#0072BC"/>
<path fill-rule="evenodd" clip-rule="evenodd" d="M38.967 16.7549C39.7265 17.884 39.5884 18.4485 39.7748 18.9786C41.632 17.9046 43.7585 13.6361 42.9507 11.5156C42.495 13.1266 41.7908 13.4778 41.3351 14.8203C40.4721 16.8375 40.6033 17.4502 40.0924 17.9046C40.1959 16.8581 39.8231 15.6189 39.471 14.7101C38.9877 13.9321 38.5597 12.9132 38.1799 12.5621C37.8071 14.0423 38.0695 15.2471 38.9601 16.7549" fill="#0072BC"/>
<path fill-rule="evenodd" clip-rule="evenodd" d="M37.2764 20.4094C37.2764 22.048 37.594 22.7709 37.7321 23.9826C40.9149 22.9361 42.6065 19.2872 42.6065 17.4834C41.6054 19.6865 40.2107 19.659 38.3259 22.7709C38.1671 21.5867 38.6435 22.4748 38.6987 20.2442C38.6435 17.9103 38.1602 17.8277 38.0773 16.375C37.4905 17.0153 37.2695 19.597 37.2695 20.4025" fill="#0072BC"/>
<path fill-rule="evenodd" clip-rule="evenodd" d="M34.6125 25.0553C34.3708 26.267 34.288 27.6852 34.1016 28.7386C35.9036 28.0708 36.3661 28.5802 38.541 27.2102C39.5352 26.6732 41.3441 24.4219 41.2336 22.804C39.0795 25.193 38.679 24.9314 37.6572 25.8126C36.6837 26.5906 35.8759 27.7472 35.1786 27.5888C35.1234 26.9417 36.7666 25.5441 36.5802 21.5234C36.1245 21.9778 34.937 23.8023 34.6125 25.0622" fill="#0072BC"/>
<path fill-rule="evenodd" clip-rule="evenodd" d="M30.9708 28.0616C30.4323 28.8671 30.5634 29.2182 29.0859 30.8774C29.4588 31.0357 31.5093 31.5796 32.9109 31.6278C33.8015 31.6278 37.0326 30.7672 38.1028 28.5641C36.2456 29.5555 36.218 29.3146 33.7463 29.8516C31.965 30.2509 30.7291 30.8154 30.2182 30.7672C30.3218 30.5263 31.7233 29.9617 32.6416 28.7776C33.5806 27.5177 33.3665 26.0925 34.2296 25.0461C33.6427 24.8877 31.4334 27.4626 30.9708 28.0547" fill="#0072BC"/>
<path fill-rule="evenodd" clip-rule="evenodd" d="M16.9721 35.629L16.4336 35.3605C16.4336 35.3605 19.8581 31.2022 25.7266 31.5258C31.5952 31.8493 31.1947 33.2194 34.343 32.9991C34.6952 32.9715 34.0738 33.4328 34.0738 33.4328C34.0738 33.4328 31.0014 34.6101 27.2041 33.3227C23.4344 32.0352 20.9835 31.2573 16.9721 35.629Z" fill="#0072BC"/>
<path fill-rule="evenodd" clip-rule="evenodd" d="M26.2572 35.629L26.8026 35.3605C26.8026 35.3605 23.4058 31.2022 17.5372 31.5258C11.641 31.8493 12.0415 33.2194 8.89318 32.9991C8.54107 32.9715 9.16245 33.4328 9.16245 33.4328C9.16245 33.4328 12.2279 34.6101 16.0252 33.3227C19.8225 32.0352 22.2735 31.2573 26.2572 35.629Z" fill="#0072BC"/>
<path fill-rule="evenodd" clip-rule="evenodd" d="M67.8752 17.5234C67.8752 23.1344 64.8374 25.8263 58.6443 25.8263C52.4513 25.8263 49.3789 23.1344 49.3789 17.5234V5.11719H55.6272V16.1396C55.6272 18.205 55.6272 20.7867 58.665 20.7867C61.7029 20.7867 61.62 18.205 61.62 16.1396V5.11719H67.8683V17.5234" fill="#0072BC"/>
<path fill-rule="evenodd" clip-rule="evenodd" d="M71.625 5.11719H78.0114L83.9283 15.9399H83.9835V5.11719H89.8866V25.3444H83.8109L77.5902 14.2945H77.535V25.3444H71.625V5.11719Z" fill="#0072BC"/>
<path fill-rule="evenodd" clip-rule="evenodd" d="M93.7227 5.11719H99.9709V12.1464H105.826V5.11719H112.074V25.3444H105.826V17.3306H99.9709V25.3444H93.7227V5.11719Z" fill="#0072BC"/>
<path fill-rule="evenodd" clip-rule="evenodd" d="M128.072 12.6535C127.954 11.9168 127.388 9.67928 124.806 9.67928C121.879 9.67928 120.947 12.5089 120.947 15.2283C120.947 17.9478 121.886 20.7843 124.806 20.7843C126.912 20.7843 127.733 19.311 128.106 17.4108H134.244C134.244 21.4865 130.916 25.8239 124.979 25.8239C118.42 25.8239 114.691 21.2042 114.691 15.2283C114.691 8.85312 118.723 4.63281 124.979 4.63281C130.543 4.66035 133.616 7.57946 134.154 12.6535H128.072Z" fill="#0072BC"/>
<path fill-rule="evenodd" clip-rule="evenodd" d="M136.848 25.3444H143.096V18.2945H146.424C148.895 18.2945 149.061 20.3048 149.234 22.2325C149.317 23.279 149.434 24.3254 149.745 25.3444H155.993C155.42 24.4081 155.399 22.0053 155.309 21.0139C155.082 18.4941 154.032 16.6215 152.327 15.9674C154.405 15.2032 155.372 12.9933 155.372 10.9003C155.372 7.07244 152.299 5.11719 148.75 5.11719H136.848V25.3444ZM143.103 9.92958H146.03C148.419 9.92958 149.13 10.6662 149.13 11.9399C149.13 13.7506 147.535 13.9502 146.375 13.9502H143.11V9.92958" fill="#0072BC"/>
<path fill-rule="evenodd" clip-rule="evenodd" d="M51.4078 29.9874H49.3711V28.7344H54.9428V29.9874H52.906V35.5158H51.4078V29.9874Z" fill="#0072BC"/>
<path fill-rule="evenodd" clip-rule="evenodd" d="M55.4062 28.7344H56.7595V31.2886H56.7871C57.1323 30.7378 57.7192 30.4693 58.2232 30.4693C59.6592 30.4693 60.0251 31.2748 60.0251 32.4934V35.5089H58.6719V32.7344C58.6719 31.9289 58.4372 31.5296 57.8089 31.5296C57.0771 31.5296 56.7595 31.9358 56.7595 32.934V35.5089H55.4062V28.7344Z" fill="#0072BC"/>
<path fill-rule="evenodd" clip-rule="evenodd" d="M64.1533 32.536C64.029 31.8544 63.7322 31.4895 63.0763 31.4895C62.2201 31.4895 61.9716 32.1574 61.9509 32.536H64.1464M61.9578 33.3897C61.9923 34.2434 62.4135 34.6358 63.166 34.6358C63.7114 34.6358 64.1464 34.3054 64.2293 34.0024H65.4168C65.037 35.1591 64.2293 35.6548 63.1108 35.6548C61.5642 35.6548 60.5977 34.5945 60.5977 33.073C60.5977 31.5515 61.6195 30.4844 63.1108 30.4844C64.7885 30.4844 65.5963 31.8888 65.4996 33.3966H61.9509" fill="#0072BC"/>
<path fill-rule="evenodd" clip-rule="evenodd" d="M74.2809 32.9556C74.2809 34.7869 73.1969 35.6751 71.3811 35.6751C69.5653 35.6751 68.4883 34.7938 68.4883 32.9556V28.7422H69.9796V32.9556C69.9796 33.6923 70.1729 34.4289 71.3811 34.4289C72.4444 34.4289 72.7896 33.9608 72.7896 32.9556V28.7422H74.2809V32.9556Z" fill="#0072BC"/>
<path fill-rule="evenodd" clip-rule="evenodd" d="M75.2812 28.7344H76.7657L79.6033 33.2851H79.624V28.7344H81.0255V35.5158H79.5273L76.7035 30.9788H76.6828V35.5158H75.2812V28.7344Z" fill="#0072BC"/>
<path fill-rule="evenodd" clip-rule="evenodd" d="M84.2812 35.5158H85.7726V32.8652H87.2639C88.0164 32.8652 88.2926 33.1819 88.3961 33.891C88.4721 34.4349 88.4514 35.0889 88.6378 35.5158H90.1291C89.8598 35.1371 89.8736 34.3385 89.846 33.9117C89.7977 33.2301 89.5906 32.5141 88.8587 32.3282V32.3075C89.6113 32.0046 89.9358 31.4056 89.9358 30.607C89.9358 29.5812 89.1625 28.7344 87.9474 28.7344H84.2812V35.5089M85.7795 29.8979H87.4157C88.0786 29.8979 88.4445 30.187 88.4445 30.8342C88.4445 31.4814 88.0855 31.8049 87.4157 31.8049H85.7795V29.8979Z" fill="#0072BC"/>
<path fill-rule="evenodd" clip-rule="evenodd" d="M95.5074 33.3888C95.6041 31.881 94.7963 30.4766 93.1186 30.4766C91.6204 30.4766 90.6055 31.5988 90.6055 33.0652C90.6055 34.5316 91.5651 35.647 93.1186 35.647C94.2302 35.647 95.038 35.1513 95.4246 33.9946H94.2371C94.1473 34.2976 93.7124 34.628 93.1738 34.628C92.4213 34.628 92.0001 34.2425 91.9656 33.3819H95.5143M91.9587 32.5351C91.9794 32.1564 92.228 31.4886 93.0841 31.4886C93.74 31.4886 94.0369 31.8466 94.1611 32.5351H91.9587Z" fill="#0072BC"/>
<path fill-rule="evenodd" clip-rule="evenodd" d="M96.3976 31.5089H95.5898V30.607H96.3976V30.2283C96.3976 29.3609 96.9362 28.7344 98.0408 28.7344C98.2756 28.7344 98.5241 28.7619 98.752 28.7757V29.7808C98.5932 29.7602 98.4275 29.7533 98.2549 29.7533C97.8958 29.7533 97.744 29.9048 97.744 30.311V30.607H98.676V31.5089H97.744V35.5158H96.3907V31.5089" fill="#0072BC"/>
<path fill-rule="evenodd" clip-rule="evenodd" d="M103.717 35.5182H102.432V34.8366H102.405C102.06 35.3873 101.473 35.6558 100.9 35.6558C99.4636 35.6558 99.0977 34.8503 99.0977 33.6317V30.6094H100.451V33.3839C100.451 34.1894 100.686 34.5887 101.314 34.5887C102.046 34.5887 102.363 34.1825 102.363 33.1842V30.6094H103.717V35.5182Z" fill="#0072BC"/>
<path fill-rule="evenodd" clip-rule="evenodd" d="M109.264 30.6074H107.98V31.2614H107.959C107.635 30.69 107.138 30.4766 106.495 30.4766C105.115 30.4766 104.383 31.6332 104.383 32.9069C104.383 34.2563 105.011 35.3785 106.489 35.3785C107.075 35.3785 107.669 35.1306 107.966 34.6211H107.987V35.2683C107.994 35.9705 107.655 36.48 106.903 36.48C106.426 36.48 106.019 36.3079 105.895 35.8053H104.555C104.618 36.9275 105.757 37.3819 106.73 37.3819C108.995 37.3819 109.278 36.0118 109.278 35.2063V30.6143M106.827 34.3595C105.998 34.3595 105.736 33.5884 105.736 32.8862C105.736 32.184 106.067 31.4886 106.827 31.4886C107.704 31.4886 107.98 32.1977 107.98 32.9964C107.98 33.6986 107.6 34.3526 106.827 34.3526" fill="#0072BC"/>
<path fill-rule="evenodd" clip-rule="evenodd" d="M114.843 33.3888C114.94 31.881 114.132 30.4766 112.455 30.4766C110.963 30.4766 109.941 31.5988 109.941 33.0652C109.941 34.5316 110.901 35.647 112.455 35.647C113.566 35.647 114.381 35.1513 114.761 33.9946H113.573C113.483 34.2976 113.048 34.628 112.503 34.628C111.75 34.628 111.336 34.2425 111.295 33.3819H114.843M111.288 32.5351C111.308 32.1564 111.557 31.4886 112.413 31.4886C113.069 31.4886 113.366 31.8466 113.49 32.5351H111.295" fill="#0072BC"/>
<path fill-rule="evenodd" clip-rule="evenodd" d="M120.132 33.3888C120.229 31.881 119.421 30.4766 117.744 30.4766C116.252 30.4766 115.23 31.5988 115.23 33.0652C115.23 34.5316 116.19 35.647 117.744 35.647C118.855 35.647 119.663 35.1513 120.05 33.9946H118.862C118.779 34.2976 118.337 34.628 117.792 34.628C117.039 34.628 116.618 34.2425 116.584 33.3819H120.132M116.584 32.5351C116.604 32.1564 116.846 31.4886 117.709 31.4886C118.365 31.4886 118.662 31.8466 118.786 32.5351H116.591" fill="#0072BC"/>
<path fill-rule="evenodd" clip-rule="evenodd" d="M122.999 35.5167H124.511L125.043 34.009H127.583L128.094 35.5167H129.648L127.107 28.7422H125.574L122.992 35.5167H122.999ZM126.32 30.4083H126.341L127.197 32.8936H125.436L126.32 30.4083Z" fill="#0072BC"/>
<path fill-rule="evenodd" clip-rule="evenodd" d="M134.623 30.6074H133.339V31.2614H133.319C132.994 30.69 132.497 30.4766 131.855 30.4766C130.474 30.4766 129.742 31.6332 129.742 32.9069C129.742 34.2563 130.37 35.3785 131.848 35.3785C132.435 35.3785 133.029 35.1306 133.325 34.6211H133.346V35.2683C133.353 35.9705 133.015 36.48 132.262 36.48C131.786 36.48 131.378 36.3079 131.254 35.8053H129.908C129.977 36.9275 131.109 37.3819 132.083 37.3819C134.347 37.3819 134.63 36.0118 134.63 35.2063V30.6143M132.186 34.3595C131.358 34.3595 131.089 33.5884 131.089 32.8862C131.089 32.184 131.42 31.4886 132.186 31.4886C133.063 31.4886 133.339 32.1977 133.339 32.9964C133.339 33.6986 132.96 34.3526 132.186 34.3526" fill="#0072BC"/>
<path fill-rule="evenodd" clip-rule="evenodd" d="M140.203 33.3888C140.299 31.881 139.492 30.4766 137.814 30.4766C136.316 30.4766 135.301 31.5988 135.301 33.0652C135.301 34.5316 136.26 35.647 137.814 35.647C138.925 35.647 139.733 35.1513 140.113 33.9946H138.925C138.843 34.2976 138.401 34.628 137.855 34.628C137.103 34.628 136.682 34.2425 136.647 33.3819H140.196M136.647 32.5351C136.668 32.1564 136.916 31.4886 137.772 31.4886C138.428 31.4886 138.725 31.8466 138.85 32.5351H136.654" fill="#0072BC"/>
<path fill-rule="evenodd" clip-rule="evenodd" d="M140.789 30.6064H142.073V31.288H142.101C142.446 30.7373 143.033 30.4688 143.606 30.4688C145.042 30.4688 145.408 31.2743 145.408 32.4928V35.5083H144.055V32.7338C144.055 31.9283 143.82 31.529 143.192 31.529C142.46 31.529 142.142 31.9352 142.142 32.9335V35.5083H140.789V30.5996" fill="#0072BC"/>
<path fill-rule="evenodd" clip-rule="evenodd" d="M149.579 32.3354C149.496 31.7847 149.144 31.4886 148.577 31.4886C147.714 31.4886 147.424 32.363 147.424 33.0859C147.424 33.8087 147.701 34.6349 148.55 34.6349C149.178 34.6349 149.537 34.2356 149.627 33.6366H150.932C150.759 34.9378 149.855 35.647 148.564 35.647C147.079 35.647 146.078 34.6005 146.078 33.134C146.078 31.6676 146.989 30.4766 148.591 30.4766C149.751 30.4766 150.821 31.0824 150.904 32.3354H149.579Z" fill="#0072BC"/>
<path fill-rule="evenodd" clip-rule="evenodd" d="M153.95 36.13C153.653 36.9148 153.19 37.2384 152.258 37.2384C151.982 37.2384 151.706 37.2177 151.43 37.1902V36.0818C151.685 36.1024 151.954 36.1368 152.223 36.13C152.686 36.0818 152.845 35.5998 152.686 35.2074L150.953 30.6016H152.403L153.515 33.9613H153.535L154.612 30.6016H156.014L153.956 36.1231" fill="#0072BC"/>
<path fill-rule="evenodd" clip-rule="evenodd" d="M63.0002 45.2771C63.0002 44.5886 62.5998 44.0241 61.8058 43.5697C61.0118 43.1153 59.9486 42.895 58.623 42.895C57.2974 42.895 56.2272 43.1153 55.4125 43.549C54.6047 43.9897 54.1974 44.5473 54.1974 45.2289C54.1974 45.9105 54.6047 46.4544 55.4263 46.9019C56.241 47.3425 57.3112 47.5697 58.623 47.5697C59.9348 47.5697 60.9773 47.3563 61.792 46.9294C62.5998 46.5026 63.0071 45.9518 63.0071 45.284L63.0002 45.2771ZM65.4926 45.2358C65.4926 45.8761 65.3338 46.475 65.0231 47.0189C64.7124 47.5697 64.2499 48.0379 63.6285 48.4303C63.0416 48.7952 62.3374 49.0774 61.502 49.284C60.6735 49.4836 59.7138 49.5938 58.6368 49.5938C57.6426 49.5938 56.7519 49.5043 55.951 49.3184C55.1571 49.1394 54.4666 48.8847 53.8798 48.568C53.2101 48.1755 52.6854 47.6936 52.3125 47.1222C51.9397 46.5576 51.7533 45.9311 51.7533 45.2427C51.7533 44.5542 51.9397 43.9277 52.3125 43.3563C52.6854 42.778 53.217 42.296 53.9005 41.9036C54.4874 41.58 55.1709 41.3322 55.9579 41.1601C56.7519 40.9879 57.6288 40.8984 58.6092 40.8984C59.5895 40.8984 60.3904 40.9811 61.1361 41.1325C61.8886 41.284 62.5445 41.4974 63.0969 41.7728C63.8701 42.1652 64.4639 42.6609 64.8643 43.2599C65.2717 43.8589 65.4788 44.5198 65.4788 45.2496L65.4926 45.2358ZM67.2877 53.6902H63.0831V60.0034H60.784V53.6902H56.6V59.7831H54.3009V53.6902H49.9375V51.4664H67.2877V53.6902Z" fill="#0072BC"/>
<path fill-rule="evenodd" clip-rule="evenodd" d="M84.1202 54.8723H81.9039V40.7656H84.1202V54.8723ZM84.5137 59.5539H71.306V53.4816H73.6051V57.3508H84.5137V59.5608V59.5539ZM72.314 43.8706C71.8169 43.8706 71.382 44.0909 71.0091 44.5247C70.6363 44.9584 70.4499 45.578 70.4499 46.3766C70.4499 47.1753 70.6363 47.7949 71.0229 48.2355C71.4027 48.6761 71.8307 48.8896 72.314 48.8896C72.7973 48.8896 73.2461 48.6761 73.6258 48.2355C74.0055 47.8018 74.1989 47.1821 74.1989 46.3766C74.1989 45.5711 74.0055 44.9446 73.6258 44.5109C73.2461 44.084 72.8111 43.8706 72.314 43.8706ZM76.3668 44.9584H78.2309V41.0961H80.4402V54.5074H78.2309V47.368H76.4358C76.2632 48.5178 75.7937 49.4472 75.0205 50.1494C74.2541 50.8586 73.3496 51.2097 72.314 51.2097C71.1472 51.2097 70.153 50.7553 69.3383 49.8534C68.5167 48.9515 68.1094 47.7949 68.1094 46.3766C68.1094 44.9584 68.5167 43.788 69.3383 42.893C70.153 41.998 71.1472 41.5505 72.314 41.5505C73.2944 41.5505 74.1436 41.8603 74.8755 42.4799C75.6073 43.0995 76.1044 43.9257 76.3668 44.9584Z" fill="#0072BC"/>
<path fill-rule="evenodd" clip-rule="evenodd" d="M102.983 48.4145H100.594V54.4386H98.2953V40.7656H100.594V46.1632H102.983V48.4076V48.4145ZM101.098 59.5539H88.374V52.9997H90.6938V57.3439H101.098V59.5539ZM97.025 50.5694C96.4726 50.6864 95.727 50.7966 94.7949 50.9068C93.8629 51.0169 92.8756 51.0858 91.8399 51.1133C90.8457 51.1615 89.7342 51.1753 88.4983 51.1753H86.4961V41.4128H88.7952V48.9446L91.8883 48.9033C92.8687 48.8689 93.8145 48.8138 94.7328 48.7174C95.651 48.621 96.4174 48.5109 97.0319 48.3801V50.5625" fill="#0072BC"/>
<path fill-rule="evenodd" clip-rule="evenodd" d="M119.062 54.6589H116.784V40.7656H119.062V54.6589ZM110.736 49.282V44.1047H106.552V49.282H110.736ZM119.449 59.5539H106.241V53.3302H108.602V57.3508H119.449V59.5608V59.5539ZM113.014 51.5126H104.273V41.8809H113.014V51.5126Z" fill="#0072BC"/>
<path fill-rule="evenodd" clip-rule="evenodd" d="M137.013 59.9877H134.734V40.7656H137.013V59.9877ZM131.379 43.0582C131.379 44.1529 131.179 45.4954 130.778 47.0995C130.378 48.7037 129.722 50.1563 128.818 51.4644C127.941 52.7312 127.043 53.7914 126.132 54.6451C125.221 55.4988 124.282 56.1942 123.315 56.7312L121.582 55.2441C122.459 54.7346 123.336 54.115 124.219 53.3646C125.103 52.621 125.876 51.7605 126.532 50.7828C127.264 49.7088 127.789 48.7174 128.12 47.8155C128.452 46.9136 128.638 46.0531 128.68 45.2407H122.68V43.0582H131.372" fill="#0072BC"/>
<path fill-rule="evenodd" clip-rule="evenodd" d="M155.999 51.9591H148.093V59.9728H145.746V51.9591H138.648V49.756H150.634C150.793 49.2327 150.972 48.3859 151.166 47.2224C151.366 46.0589 151.49 44.9642 151.545 43.9453H140.595V41.7422H154.176C154.176 42.0589 154.114 42.7267 154.003 43.7387C153.886 44.7508 153.769 45.6045 153.651 46.3067C153.548 47.0227 153.423 47.6905 153.278 48.3308C153.133 48.9642 153.03 49.4393 152.975 49.7628H155.999V51.9659" fill="#0072BC"/>
</g>
<defs>
<clipPath id="clip0_130_1173">
<rect width="156" height="60" fill="white"/>
</clipPath>
</defs>
</svg>
