<svg width="34" height="34" viewBox="0 0 34 34" fill="none" xmlns="http://www.w3.org/2000/svg">
<g clip-path="url(#clip0_82_561)">
<path d="M0 17C0 26.3885 7.61102 34 17 34H30.5722C31.2998 34 31.6643 33.12 31.1497 32.6055L28.2708 29.7266C31.7849 26.6122 34 22.0645 34 17C34 7.61102 26.389 0 17 0C7.61102 0 0 7.61102 0 17Z" fill="#3F72B1"/>
<path d="M16.9992 19.564C15.5836 19.564 14.436 18.4164 14.436 17.0008C14.436 15.5851 15.5836 14.4375 16.9992 14.4375C18.4149 14.4375 19.5625 15.5851 19.5625 17.0008C19.5625 18.4164 18.4149 19.564 16.9992 19.564Z" fill="white"/>
<path d="M8.41134 19.564C6.99568 19.564 5.84806 18.4164 5.84806 17.0008C5.84806 15.5851 6.99568 14.4375 8.41134 14.4375C9.82699 14.4375 10.9746 15.5851 10.9746 17.0008C10.9746 18.4164 9.82699 19.564 8.41134 19.564Z" fill="white"/>
<path d="M25.5891 19.564C24.1734 19.564 23.0258 18.4164 23.0258 17.0008C23.0258 15.5851 24.1734 14.4375 25.5891 14.4375C27.0047 14.4375 28.1523 15.5851 28.1523 17.0008C28.1523 18.4164 27.0047 19.564 25.5891 19.564Z" fill="white"/>
</g>
<defs>
<clipPath id="clip0_82_561">
<rect width="34" height="34" fill="white" transform="matrix(-1 0 0 1 34 0)"/>
</clipPath>
</defs>
</svg>
