<svg width="41" height="41" viewBox="0 0 41 41" fill="none" xmlns="http://www.w3.org/2000/svg">
<path d="M37.8698 15.8948C38.7393 14.7681 39.698 13.3249 39.8519 11.8795C39.8947 11.4776 39.6175 10.8802 39.1023 11.1088C37.79 11.6912 36.4137 12.1231 35.0185 12.4576C31.0523 13.4083 26.8586 13.6886 22.7955 13.3726C18.2821 13.0216 13.4162 12.7251 9.24486 14.8176C7.92382 15.4803 6.71423 16.3695 5.73072 17.4759C4.948 18.3565 4.32058 19.3258 3.9315 20.4401C3.15785 22.6562 3.09176 25.2455 4.27908 27.3405C4.85183 28.3511 5.75471 29.1919 6.80828 29.6866C7.62593 30.0705 8.43109 30.3015 9.23271 30.3845L9.22635 30.4201C10.2284 32.8256 13.5633 33.7309 13.5633 33.7309C21.4619 35.9527 22.9929 30.2515 22.9929 30.2515C28.8127 29.8119 28.5303 24.7568 28.5303 24.7568C34.3286 23.3297 34.1945 18.7641 34.1945 18.7641C35.6378 18.1239 36.9051 17.1456 37.8704 15.8948L37.8698 15.8948Z" fill="#ECF3FF"/>
<mask id="path-2-outside-1_130_287" maskUnits="userSpaceOnUse" x="-1.1472" y="-1.28171" width="43.2362" height="42.6385" fill="black">
<rect fill="white" x="-1.1472" y="-1.28171" width="43.2362" height="42.6385"/>
<path d="M39.6058 10.5086C39.8484 10.5835 40.025 10.739 40.1438 10.8973C40.369 11.1974 40.4583 11.5976 40.4229 11.9307L40.4229 11.9308C40.2499 13.5555 39.1912 15.1148 38.3226 16.2405L38.3226 16.2405C37.3704 17.4744 36.1434 18.4567 34.7504 19.1337C34.7389 19.2605 34.7203 19.4141 34.69 19.589C34.6038 20.0859 34.4231 20.7614 34.0439 21.4855C33.3121 22.8825 31.8698 24.404 29.0943 25.1971C29.0863 25.3197 29.0732 25.4623 29.052 25.6206C28.9816 26.1459 28.8209 26.8572 28.4565 27.5888C27.7397 29.0278 26.2711 30.4645 23.4018 30.7873C23.3341 30.9493 23.2395 31.1553 23.1126 31.3884C22.8119 31.9409 22.3252 32.6567 21.5805 33.3028C20.0604 34.6217 17.5621 35.5658 13.6618 34.4622C13.6594 34.4615 13.657 34.4608 13.6546 34.4601L13.8206 33.9013L13.6753 34.3902C13.6556 34.4564 13.6545 34.4598 13.6543 34.46C13.6542 34.46 13.654 34.4599 13.6539 34.4599C13.6536 34.4598 13.6532 34.4597 13.6528 34.4596C13.652 34.4593 13.6509 34.459 13.6497 34.4586C13.6472 34.4579 13.6438 34.4568 13.6395 34.4556C13.6311 34.453 13.6193 34.4493 13.6044 34.4446C13.5745 34.4351 13.532 34.4214 13.4784 34.4032C13.3712 34.367 13.2191 34.3131 13.0345 34.2409C12.6662 34.097 12.1636 33.8785 11.6261 33.5799C10.651 33.0381 9.47504 32.185 8.84744 30.9595C8.0734 30.8151 7.30569 30.5578 6.55156 30.2038L6.55147 30.2038C5.3877 29.6573 4.39461 28.7321 3.76286 27.6174C2.46909 25.3345 2.56083 22.5603 3.37208 20.2373L3.39197 20.1811C3.81277 19.0034 4.47741 17.9877 5.28595 17.078L5.28602 17.078C6.32392 15.9105 7.59496 14.9778 8.97448 14.2859C13.313 12.1097 18.3428 12.4317 22.8319 12.7808L23.0199 12.795C26.9684 13.0835 31.0328 12.8008 34.8738 11.8802L34.8739 11.8802C36.2434 11.5521 37.5845 11.1303 38.8571 10.5655C39.0955 10.4596 39.3548 10.4313 39.6058 10.5086ZM33.6024 18.7697L33.6025 18.7702C33.5958 18.5338 33.7326 18.3167 33.9488 18.2208C35.3065 17.6186 36.4954 16.6997 37.3995 15.5282C38.2693 14.4008 39.1286 13.0732 39.2635 11.8073L39.2635 11.8072C39.266 11.7834 39.2645 11.7411 39.2519 11.6922C39.2498 11.6838 39.2474 11.676 39.245 11.6686C37.9185 12.2499 36.5364 12.6808 35.1456 13.014C31.1159 13.9798 26.8606 14.2635 22.7416 13.9433L22.7416 13.9433C18.2033 13.5904 13.5019 13.3194 9.49727 15.3281L9.4972 15.3282C8.23485 15.9613 7.08654 16.8074 6.15744 17.8525L6.15747 17.8526C5.43667 18.6636 4.86816 19.5378 4.50718 20.5257L4.47291 20.6217L4.43888 20.7208C3.73538 22.8058 3.71332 25.1651 4.77729 27.0425C5.29104 27.949 6.10368 28.7054 7.04703 29.1483L7.04699 29.1483C7.80815 29.5056 8.56884 29.7465 9.3249 29.8576C9.32993 29.8583 9.33495 29.859 9.33995 29.8599C10.5235 30.0311 11.6956 29.8839 12.8406 29.3659L12.8407 29.3659C14.7521 28.5014 15.9289 26.6533 15.9513 24.4799C15.9532 24.28 15.9436 24.08 15.9224 23.8813L15.9223 23.8812C15.7262 22.0382 14.6343 20.4347 12.908 20.0018L12.9081 20.0018C11.4577 19.6384 9.85494 20.1179 9.19743 21.3623L9.19742 21.3623C8.70097 22.3017 8.91674 23.0602 9.24457 23.5328L9.26027 23.5552L9.26039 23.5552C9.48991 23.8766 9.75501 24.0322 9.95582 24.11C10.0578 24.1496 10.144 24.1692 10.2005 24.1788C10.2285 24.1835 10.2486 24.1857 10.2589 24.1866C10.2639 24.187 10.2665 24.1872 10.2663 24.1872C10.2662 24.1872 10.2654 24.1871 10.2639 24.1871C10.2631 24.187 10.2622 24.187 10.2611 24.187C10.2609 24.187 10.2607 24.1869 10.2605 24.1869C10.5808 24.1955 10.8345 24.4612 10.8278 24.782C10.821 25.1039 10.5546 25.3594 10.2327 25.3526L10.2449 24.7697C10.2328 25.3469 10.2324 25.3526 10.2321 25.3526C10.232 25.3526 10.2317 25.3526 10.2315 25.3526C10.2311 25.3526 10.2306 25.3526 10.2302 25.3525C10.2293 25.3525 10.2284 25.3525 10.2275 25.3525C10.2255 25.3524 10.2233 25.3523 10.221 25.3522C10.2162 25.3521 10.2106 25.3519 10.2041 25.3515C10.1912 25.3508 10.175 25.3497 10.1558 25.348C10.1173 25.3446 10.0665 25.3387 10.0056 25.3284C9.88427 25.3078 9.72063 25.2693 9.53448 25.1972C9.15902 25.0517 8.69474 24.7694 8.3116 24.233C7.75439 23.4531 7.42863 22.2139 8.16655 20.8175C9.15249 18.9516 11.4008 18.4221 13.1915 18.8708L13.1916 18.8708C15.5214 19.4551 16.8495 21.5758 17.0818 23.7576L17.0909 23.8491C17.1105 24.0625 17.1193 24.2769 17.1172 24.4913L17.1172 24.4916C17.0905 27.0975 15.665 29.3681 13.3212 30.4282C12.3314 30.876 11.3293 31.0863 10.3301 31.0938C10.8296 31.6946 11.5148 32.1842 12.1924 32.5607C12.6732 32.8278 13.1261 33.0249 13.459 33.155C13.6249 33.2198 13.7598 33.2676 13.8519 33.2987C13.8979 33.3142 13.9331 33.3257 13.956 33.3329C13.9675 33.3365 13.9759 33.3391 13.9811 33.3407C13.983 33.3413 13.9845 33.3417 13.9855 33.342C17.5386 34.3456 19.6201 33.4601 20.8164 32.4221C21.4304 31.8894 21.8362 31.2945 22.0884 30.8311C22.2141 30.6001 22.3003 30.4043 22.3541 30.2692C22.381 30.2017 22.3997 30.1497 22.4112 30.1163C22.4169 30.0996 22.4208 30.0876 22.423 30.0807C22.4238 30.0782 22.4244 30.0763 22.4247 30.0752C22.4935 29.8433 22.6984 29.678 22.9397 29.6598C25.6423 29.4556 26.8465 28.2061 27.4129 27.069C27.7053 26.4818 27.8378 25.9019 27.8963 25.4656C27.9254 25.2486 27.9358 25.0704 27.939 24.9491C27.9406 24.8886 27.9404 24.8426 27.9399 24.8134C27.9396 24.7988 27.9392 24.7884 27.939 24.7826C27.9389 24.7796 27.9388 24.7778 27.9388 24.7772L27.9388 24.7772C27.924 24.4978 28.1098 24.2472 28.3817 24.1803C31.1188 23.5067 32.3974 22.1159 33.011 20.9445C33.323 20.3488 33.4711 19.7936 33.5411 19.3899C33.576 19.1884 33.5912 19.0262 33.5977 18.9178C33.6009 18.8636 33.602 18.823 33.6023 18.7978C33.6025 18.7853 33.6025 18.7766 33.6025 18.772L33.6024 18.7697ZM22.425 30.0743C22.4249 30.0745 22.4248 30.0748 22.4247 30.0752L22.4249 30.0747C22.4249 30.0744 22.425 30.0742 22.425 30.074C22.425 30.0741 22.425 30.0742 22.425 30.0743ZM33.6024 18.7687C33.6024 18.769 33.6024 18.7692 33.6024 18.7696L33.6024 18.7697L33.6024 18.7687Z"/>
</mask>
<path d="M39.6058 10.5086C39.8484 10.5835 40.025 10.739 40.1438 10.8973C40.369 11.1974 40.4583 11.5976 40.4229 11.9307L40.4229 11.9308C40.2499 13.5555 39.1912 15.1148 38.3226 16.2405L38.3226 16.2405C37.3704 17.4744 36.1434 18.4567 34.7504 19.1337C34.7389 19.2605 34.7203 19.4141 34.69 19.589C34.6038 20.0859 34.4231 20.7614 34.0439 21.4855C33.3121 22.8825 31.8698 24.404 29.0943 25.1971C29.0863 25.3197 29.0732 25.4623 29.052 25.6206C28.9816 26.1459 28.8209 26.8572 28.4565 27.5888C27.7397 29.0278 26.2711 30.4645 23.4018 30.7873C23.3341 30.9493 23.2395 31.1553 23.1126 31.3884C22.8119 31.9409 22.3252 32.6567 21.5805 33.3028C20.0604 34.6217 17.5621 35.5658 13.6618 34.4622C13.6594 34.4615 13.657 34.4608 13.6546 34.4601L13.8206 33.9013L13.6753 34.3902C13.6556 34.4564 13.6545 34.4598 13.6543 34.46C13.6542 34.46 13.654 34.4599 13.6539 34.4599C13.6536 34.4598 13.6532 34.4597 13.6528 34.4596C13.652 34.4593 13.6509 34.459 13.6497 34.4586C13.6472 34.4579 13.6438 34.4568 13.6395 34.4556C13.6311 34.453 13.6193 34.4493 13.6044 34.4446C13.5745 34.4351 13.532 34.4214 13.4784 34.4032C13.3712 34.367 13.2191 34.3131 13.0345 34.2409C12.6662 34.097 12.1636 33.8785 11.6261 33.5799C10.651 33.0381 9.47504 32.185 8.84744 30.9595C8.0734 30.8151 7.30569 30.5578 6.55156 30.2038L6.55147 30.2038C5.3877 29.6573 4.39461 28.7321 3.76286 27.6174C2.46909 25.3345 2.56083 22.5603 3.37208 20.2373L3.39197 20.1811C3.81277 19.0034 4.47741 17.9877 5.28595 17.078L5.28602 17.078C6.32392 15.9105 7.59496 14.9778 8.97448 14.2859C13.313 12.1097 18.3428 12.4317 22.8319 12.7808L23.0199 12.795C26.9684 13.0835 31.0328 12.8008 34.8738 11.8802L34.8739 11.8802C36.2434 11.5521 37.5845 11.1303 38.8571 10.5655C39.0955 10.4596 39.3548 10.4313 39.6058 10.5086ZM33.6024 18.7697L33.6025 18.7702C33.5958 18.5338 33.7326 18.3167 33.9488 18.2208C35.3065 17.6186 36.4954 16.6997 37.3995 15.5282C38.2693 14.4008 39.1286 13.0732 39.2635 11.8073L39.2635 11.8072C39.266 11.7834 39.2645 11.7411 39.2519 11.6922C39.2498 11.6838 39.2474 11.676 39.245 11.6686C37.9185 12.2499 36.5364 12.6808 35.1456 13.014C31.1159 13.9798 26.8606 14.2635 22.7416 13.9433L22.7416 13.9433C18.2033 13.5904 13.5019 13.3194 9.49727 15.3281L9.4972 15.3282C8.23485 15.9613 7.08654 16.8074 6.15744 17.8525L6.15747 17.8526C5.43667 18.6636 4.86816 19.5378 4.50718 20.5257L4.47291 20.6217L4.43888 20.7208C3.73538 22.8058 3.71332 25.1651 4.77729 27.0425C5.29104 27.949 6.10368 28.7054 7.04703 29.1483L7.04699 29.1483C7.80815 29.5056 8.56884 29.7465 9.3249 29.8576C9.32993 29.8583 9.33495 29.859 9.33995 29.8599C10.5235 30.0311 11.6956 29.8839 12.8406 29.3659L12.8407 29.3659C14.7521 28.5014 15.9289 26.6533 15.9513 24.4799C15.9532 24.28 15.9436 24.08 15.9224 23.8813L15.9223 23.8812C15.7262 22.0382 14.6343 20.4347 12.908 20.0018L12.9081 20.0018C11.4577 19.6384 9.85494 20.1179 9.19743 21.3623L9.19742 21.3623C8.70097 22.3017 8.91674 23.0602 9.24457 23.5328L9.26027 23.5552L9.26039 23.5552C9.48991 23.8766 9.75501 24.0322 9.95582 24.11C10.0578 24.1496 10.144 24.1692 10.2005 24.1788C10.2285 24.1835 10.2486 24.1857 10.2589 24.1866C10.2639 24.187 10.2665 24.1872 10.2663 24.1872C10.2662 24.1872 10.2654 24.1871 10.2639 24.1871C10.2631 24.187 10.2622 24.187 10.2611 24.187C10.2609 24.187 10.2607 24.1869 10.2605 24.1869C10.5808 24.1955 10.8345 24.4612 10.8278 24.782C10.821 25.1039 10.5546 25.3594 10.2327 25.3526L10.2449 24.7697C10.2328 25.3469 10.2324 25.3526 10.2321 25.3526C10.232 25.3526 10.2317 25.3526 10.2315 25.3526C10.2311 25.3526 10.2306 25.3526 10.2302 25.3525C10.2293 25.3525 10.2284 25.3525 10.2275 25.3525C10.2255 25.3524 10.2233 25.3523 10.221 25.3522C10.2162 25.3521 10.2106 25.3519 10.2041 25.3515C10.1912 25.3508 10.175 25.3497 10.1558 25.348C10.1173 25.3446 10.0665 25.3387 10.0056 25.3284C9.88427 25.3078 9.72063 25.2693 9.53448 25.1972C9.15902 25.0517 8.69474 24.7694 8.3116 24.233C7.75439 23.4531 7.42863 22.2139 8.16655 20.8175C9.15249 18.9516 11.4008 18.4221 13.1915 18.8708L13.1916 18.8708C15.5214 19.4551 16.8495 21.5758 17.0818 23.7576L17.0909 23.8491C17.1105 24.0625 17.1193 24.2769 17.1172 24.4913L17.1172 24.4916C17.0905 27.0975 15.665 29.3681 13.3212 30.4282C12.3314 30.876 11.3293 31.0863 10.3301 31.0938C10.8296 31.6946 11.5148 32.1842 12.1924 32.5607C12.6732 32.8278 13.1261 33.0249 13.459 33.155C13.6249 33.2198 13.7598 33.2676 13.8519 33.2987C13.8979 33.3142 13.9331 33.3257 13.956 33.3329C13.9675 33.3365 13.9759 33.3391 13.9811 33.3407C13.983 33.3413 13.9845 33.3417 13.9855 33.342C17.5386 34.3456 19.6201 33.4601 20.8164 32.4221C21.4304 31.8894 21.8362 31.2945 22.0884 30.8311C22.2141 30.6001 22.3003 30.4043 22.3541 30.2692C22.381 30.2017 22.3997 30.1497 22.4112 30.1163C22.4169 30.0996 22.4208 30.0876 22.423 30.0807C22.4238 30.0782 22.4244 30.0763 22.4247 30.0752C22.4935 29.8433 22.6984 29.678 22.9397 29.6598C25.6423 29.4556 26.8465 28.2061 27.4129 27.069C27.7053 26.4818 27.8378 25.9019 27.8963 25.4656C27.9254 25.2486 27.9358 25.0704 27.939 24.9491C27.9406 24.8886 27.9404 24.8426 27.9399 24.8134C27.9396 24.7988 27.9392 24.7884 27.939 24.7826C27.9389 24.7796 27.9388 24.7778 27.9388 24.7772L27.9388 24.7772C27.924 24.4978 28.1098 24.2472 28.3817 24.1803C31.1188 23.5067 32.3974 22.1159 33.011 20.9445C33.323 20.3488 33.4711 19.7936 33.5411 19.3899C33.576 19.1884 33.5912 19.0262 33.5977 18.9178C33.6009 18.8636 33.602 18.823 33.6023 18.7978C33.6025 18.7853 33.6025 18.7766 33.6025 18.772L33.6024 18.7697ZM22.425 30.0743C22.4249 30.0745 22.4248 30.0748 22.4247 30.0752L22.4249 30.0747C22.4249 30.0744 22.425 30.0742 22.425 30.074C22.425 30.0741 22.425 30.0742 22.425 30.0743ZM33.6024 18.7687C33.6024 18.769 33.6024 18.7692 33.6024 18.7696L33.6024 18.7697L33.6024 18.7687Z" fill="#CFE1FF"/>
<path d="M39.6058 10.5086L39.7474 10.0495L39.7473 10.0495L39.6058 10.5086ZM40.1438 10.8973L40.528 10.6088L40.528 10.6088L40.1438 10.8973ZM40.4229 11.9307L39.9451 11.8799C39.9414 11.915 39.9415 11.9505 39.9456 11.9856L40.4229 11.9307ZM40.4229 11.9308L40.9007 11.9817C40.9044 11.9465 40.9043 11.911 40.9002 11.8758L40.4229 11.9308ZM38.3226 16.2405L37.9422 15.947C37.912 15.9861 37.888 16.0297 37.8711 16.0761L38.3226 16.2405ZM38.3226 16.2405L38.703 16.5341C38.7332 16.4949 38.7572 16.4513 38.7741 16.4048L38.3226 16.2405ZM34.7504 19.1337L34.5404 18.7016C34.389 18.7752 34.2871 18.9226 34.2719 19.0903L34.7504 19.1337ZM34.69 19.589L35.1634 19.671L34.69 19.589ZM34.0439 21.4855L34.4695 21.7084L34.4695 21.7084L34.0439 21.4855ZM29.0943 25.1971L28.9623 24.7351C28.7672 24.7909 28.6282 24.9632 28.6149 25.1656L29.0943 25.1971ZM29.052 25.6206L29.5282 25.6844L29.052 25.6206ZM28.4565 27.5888L28.8866 27.803L28.8866 27.803L28.4565 27.5888ZM23.4018 30.7873L23.3481 30.3098C23.1749 30.3293 23.0257 30.4411 22.9585 30.602L23.4018 30.7873ZM23.1126 31.3884L23.5346 31.6181L23.5346 31.6181L23.1126 31.3884ZM21.5805 33.3028L21.8954 33.6657L21.5805 33.3028ZM13.6618 34.4622L13.531 34.9245L13.531 34.9245L13.6618 34.4622ZM13.6546 34.4601L13.194 34.3234C13.1578 34.4455 13.1715 34.5771 13.2322 34.6891C13.293 34.8011 13.3957 34.8845 13.5179 34.9207L13.6546 34.4601ZM13.8206 33.9013L14.2812 34.038C14.3567 33.7837 14.2117 33.5162 13.9574 33.4407C13.703 33.3651 13.4356 33.5101 13.36 33.7644L13.8206 33.9013ZM13.6753 34.3902L14.1358 34.5274L14.1359 34.5271L13.6753 34.3902ZM13.6543 34.46L13.5173 34.9205C13.6981 34.9743 13.8936 34.9174 14.0172 34.775L13.6543 34.46ZM13.6539 34.4599L13.5167 34.9204L13.5167 34.9204L13.6539 34.4599ZM13.6528 34.4596L13.5151 34.9199L13.5151 34.9199L13.6528 34.4596ZM13.6497 34.4586L13.511 34.9186L13.511 34.9186L13.6497 34.4586ZM13.6395 34.4556L13.4988 34.915L13.4988 34.915L13.6395 34.4556ZM13.6044 34.4446L13.4594 34.9027L13.4594 34.9027L13.6044 34.4446ZM13.4784 34.4032L13.3244 34.8584L13.3244 34.8584L13.4784 34.4032ZM13.0345 34.2409L12.8596 34.6885L12.8596 34.6885L13.0345 34.2409ZM11.6261 33.5799L11.3927 33.9999L11.3927 33.9999L11.6261 33.5799ZM8.84744 30.9595L9.2751 30.7405C9.20726 30.6081 9.08187 30.5145 8.93558 30.4872L8.84744 30.9595ZM6.55156 30.2038L6.75571 29.7689C6.7427 29.7628 6.72941 29.7572 6.7159 29.7523L6.55156 30.2038ZM6.55147 30.2038L6.34726 30.6387C6.36029 30.6448 6.3736 30.6504 6.38714 30.6553L6.55147 30.2038ZM3.76286 27.6174L4.18088 27.3805L4.18088 27.3805L3.76286 27.6174ZM3.37208 20.2373L2.91911 20.077L2.91847 20.0789L3.37208 20.2373ZM3.39197 20.1811L2.93951 20.0194L2.93901 20.0208L3.39197 20.1811ZM5.28595 17.078L5.08289 16.6425C5.02349 16.6702 4.97037 16.7098 4.92683 16.7588L5.28595 17.078ZM5.28602 17.078L5.48908 17.5134C5.54847 17.4857 5.60157 17.4462 5.64512 17.3972L5.28602 17.078ZM8.97448 14.2859L9.18988 14.7154L9.1899 14.7154L8.97448 14.2859ZM22.8319 12.7808L22.7947 13.2599L22.7958 13.26L22.8319 12.7808ZM23.0199 12.795L22.9837 13.2741L22.9848 13.2742L23.0199 12.795ZM34.8738 11.8802L35.0382 11.4287C34.9496 11.3964 34.8535 11.391 34.7618 11.4129L34.8738 11.8802ZM34.8739 11.8802L34.7095 12.3317C34.7981 12.3639 34.8942 12.3694 34.9858 12.3475L34.8739 11.8802ZM38.8571 10.5655L39.052 11.0046L39.052 11.0046L38.8571 10.5655ZM33.6025 18.7702L33.1231 18.8034C33.1412 19.0643 33.3646 19.2628 33.6258 19.2501C33.8871 19.2373 34.0901 19.018 34.0827 18.7566L33.6025 18.7702ZM33.9488 18.2208L33.754 17.7816L33.754 17.7816L33.9488 18.2208ZM37.3995 15.5282L37.7798 15.8217L37.7799 15.8217L37.3995 15.5282ZM39.2635 11.8073L38.812 11.6429C38.7986 11.6795 38.7898 11.7176 38.7857 11.7564L39.2635 11.8073ZM39.2635 11.8072L39.715 11.9715C39.7284 11.9347 39.7372 11.8964 39.7413 11.8575L39.2635 11.8072ZM39.2519 11.6922L39.7173 11.5725L39.7173 11.5725L39.2519 11.6922ZM39.245 11.6686L39.7021 11.5206C39.6603 11.3914 39.5658 11.286 39.4419 11.2303C39.3181 11.1746 39.1765 11.174 39.0521 11.2285L39.245 11.6686ZM35.1456 13.014L35.0336 12.5468L35.0336 12.5468L35.1456 13.014ZM22.7416 13.9433L22.7788 13.4642C22.5637 13.4475 22.3639 13.5762 22.2901 13.7789L22.7416 13.9433ZM22.7416 13.9433L22.7043 14.4224C22.9194 14.4391 23.1193 14.3104 23.1931 14.1077L22.7416 13.9433ZM9.49727 15.3281L9.70041 15.7638L9.71269 15.7576L9.49727 15.3281ZM9.4972 15.3282L9.29406 14.8925L9.28181 14.8987L9.4972 15.3282ZM6.15744 17.8525L5.79835 17.5333C5.67098 17.6766 5.64096 17.8819 5.72198 18.0556L6.15744 17.8525ZM6.15747 17.8526L6.5166 18.1718C6.64394 18.0285 6.67395 17.8233 6.59293 17.6495L6.15747 17.8526ZM4.50718 20.5257L4.05587 20.3608L4.05466 20.3642L4.50718 20.5257ZM4.47291 20.6217L4.02037 20.4601L4.0185 20.4656L4.47291 20.6217ZM4.43888 20.7208L3.98446 20.5646L3.98361 20.5671L4.43888 20.7208ZM4.77729 27.0425L5.19531 26.8056L5.19531 26.8056L4.77729 27.0425ZM7.04703 29.1483L6.8827 29.5999C7.12417 29.6877 7.39204 29.5701 7.4907 29.3328C7.58935 29.0955 7.48385 28.8226 7.25125 28.7134L7.04703 29.1483ZM7.04699 29.1483L7.21132 28.6968C6.96984 28.6089 6.70195 28.7266 6.60331 28.9639C6.50467 29.2012 6.61021 29.4741 6.84284 29.5833L7.04699 29.1483ZM9.3249 29.8576L9.25502 30.333L9.25965 30.3336L9.3249 29.8576ZM9.33995 29.8599L9.26228 30.3341L9.27114 30.3354L9.33995 29.8599ZM12.8406 29.3659L13.005 28.9144C12.887 28.8715 12.757 28.8764 12.6426 28.9282L12.8406 29.3659ZM12.8407 29.3659L12.6764 29.8174C12.7943 29.8604 12.9243 29.8554 13.0387 29.8037L12.8407 29.3659ZM15.9513 24.4799L16.4317 24.4849L16.4317 24.4846L15.9513 24.4799ZM15.9224 23.8813L16.4002 23.8303C16.3945 23.7777 16.3802 23.7263 16.3579 23.6783L15.9224 23.8813ZM15.9223 23.8812L15.4446 23.932C15.4502 23.9848 15.4645 24.0362 15.4869 24.0843L15.9223 23.8812ZM12.908 20.0018L13.0249 19.5357C12.8451 19.4906 12.6555 19.553 12.5375 19.6959C12.4195 19.8388 12.3942 20.0369 12.4726 20.2048L12.908 20.0018ZM12.9081 20.0018L12.7913 20.4679C12.971 20.5129 13.1607 20.4506 13.2786 20.3077C13.3966 20.1648 13.4218 19.9667 13.3435 19.7988L12.9081 20.0018ZM9.19743 21.3623L8.77261 21.1378C8.76235 21.1572 8.75344 21.1773 8.74593 21.1979L9.19743 21.3623ZM9.19742 21.3623L9.62223 21.5868C9.63249 21.5674 9.64141 21.5473 9.64892 21.5267L9.19742 21.3623ZM9.24457 23.5328L8.84975 23.8067L8.85155 23.8092L9.24457 23.5328ZM9.26027 23.5552L8.86725 23.8315C8.89374 23.8692 8.92551 23.9029 8.96159 23.9315L9.26027 23.5552ZM9.26039 23.5552L9.6514 23.276C9.62531 23.2395 9.59423 23.2068 9.55907 23.1789L9.26039 23.5552ZM9.95582 24.11L9.78218 24.558L9.78219 24.558L9.95582 24.11ZM10.2005 24.1788L10.1202 24.6525L10.1202 24.6525L10.2005 24.1788ZM10.2589 24.1866L10.2164 24.6652L10.2164 24.6652L10.2589 24.1866ZM10.2663 24.1872L10.2921 23.7074L10.292 23.7074L10.2663 24.1872ZM10.2639 24.1871L10.2816 23.7069L10.2816 23.7069L10.2639 24.1871ZM10.2611 24.187L10.2749 23.7067L10.2749 23.7067L10.2611 24.187ZM10.2605 24.1869L10.2733 23.7066C10.0081 23.6995 9.78735 23.9087 9.78017 24.1739C9.77299 24.4391 9.98209 24.6599 10.2473 24.6672L10.2605 24.1869ZM10.8278 24.782L11.3081 24.7921L11.3081 24.792L10.8278 24.782ZM10.2327 25.3526L9.75229 25.3426C9.74673 25.6079 9.9573 25.8274 10.2226 25.833L10.2327 25.3526ZM10.2449 24.7697L10.7252 24.7798C10.7308 24.5145 10.5202 24.2949 10.2549 24.2893C9.98964 24.2838 9.77006 24.4944 9.7645 24.7597L10.2449 24.7697ZM10.2321 25.3526L10.2215 25.833C10.2518 25.8336 10.2821 25.8314 10.312 25.8264L10.2321 25.3526ZM10.2315 25.3526L10.2205 25.8329L10.2205 25.833L10.2315 25.3526ZM10.2302 25.3525L10.2182 25.8329L10.2183 25.8329L10.2302 25.3525ZM10.2275 25.3525L10.2136 25.8328L10.2136 25.8328L10.2275 25.3525ZM10.221 25.3522L10.2033 25.8324L10.2033 25.8324L10.221 25.3522ZM10.2041 25.3515L10.1785 25.8313L10.1785 25.8313L10.2041 25.3515ZM10.1558 25.348L10.1133 25.8266L10.1133 25.8266L10.1558 25.348ZM10.0056 25.3284L9.92535 25.8021L9.92535 25.8021L10.0056 25.3284ZM9.53448 25.1972L9.36085 25.6452L9.36085 25.6452L9.53448 25.1972ZM8.3116 24.233L8.7026 23.9537L8.70254 23.9536L8.3116 24.233ZM8.16655 20.8175L8.59135 21.042L8.59137 21.042L8.16655 20.8175ZM13.1915 18.8708L13.0747 19.3369C13.1308 19.351 13.189 19.3548 13.2464 19.3482L13.1915 18.8708ZM13.1916 18.8708L13.3085 18.4048C13.2523 18.3907 13.1941 18.3869 13.1366 18.3935L13.1916 18.8708ZM17.0818 23.7576L17.5599 23.7102L17.5596 23.7068L17.0818 23.7576ZM17.0909 23.8491L17.5693 23.805L17.569 23.8016L17.0909 23.8491ZM17.1172 24.4913L17.5976 24.5044L17.5977 24.4959L17.1172 24.4913ZM17.1172 24.4916L16.6368 24.4785L16.6367 24.4867L17.1172 24.4916ZM13.3212 30.4282L13.1232 29.9904L13.1232 29.9905L13.3212 30.4282ZM10.3301 31.0938L10.3265 30.6134C10.1408 30.6148 9.97257 30.723 9.89434 30.8914C9.81612 31.0598 9.84193 31.2582 9.96064 31.401L10.3301 31.0938ZM12.1924 32.5607L11.959 32.9807L12.1924 32.5607ZM13.459 33.155L13.284 33.6025L13.284 33.6025L13.459 33.155ZM13.8519 33.2987L13.698 33.7539L13.698 33.7539L13.8519 33.2987ZM13.956 33.3329L13.8111 33.791L13.8111 33.791L13.956 33.3329ZM13.9811 33.3407L13.8403 33.8001L13.8403 33.8001L13.9811 33.3407ZM13.9855 33.342L13.8462 33.8019L13.8549 33.8044L13.9855 33.342ZM20.8164 32.4221L21.1313 32.785L21.1313 32.785L20.8164 32.4221ZM22.0884 30.8311L22.5105 31.0607L22.5105 31.0607L22.0884 30.8311ZM22.3541 30.2692L22.8005 30.447L22.8005 30.447L22.3541 30.2692ZM22.4112 30.1163L22.8657 30.2722L22.4112 30.1163ZM22.423 30.0807L22.8808 30.2265L22.423 30.0807ZM22.9397 29.6598L22.9759 30.1389L22.9397 29.6598ZM27.4129 27.069L27.843 27.2832L27.843 27.2832L27.4129 27.069ZM27.8963 25.4656L28.3726 25.5295L28.3726 25.5295L27.8963 25.4656ZM27.939 24.9491L28.4193 24.9617L28.4193 24.9617L27.939 24.9491ZM27.9399 24.8134L28.4203 24.805L28.4203 24.805L27.9399 24.8134ZM27.939 24.7826L28.4192 24.7647L28.4192 24.7647L27.939 24.7826ZM27.9388 24.7772L27.4873 24.6129C27.4656 24.6726 27.4559 24.7361 27.4588 24.7996L27.9388 24.7772ZM27.9388 24.7772L28.3903 24.9415C28.4124 24.8808 28.422 24.8163 28.4186 24.7517L27.9388 24.7772ZM28.3817 24.1803L28.2668 23.7137L28.2668 23.7137L28.3817 24.1803ZM33.011 20.9445L33.4366 21.1674L33.4366 21.1674L33.011 20.9445ZM33.5411 19.3899L34.0145 19.4719L34.0145 19.4719L33.5411 19.3899ZM33.5977 18.9178L34.0773 18.9466L34.0773 18.9466L33.5977 18.9178ZM33.6023 18.7978L34.0828 18.804L34.0828 18.804L33.6023 18.7978ZM33.6025 18.772L34.083 18.7677L34.0829 18.7625L33.6025 18.772ZM22.425 30.0743L22.8843 30.2153L22.8843 30.2152L22.425 30.0743ZM22.4249 30.0747L21.9644 29.9373C21.963 29.9421 21.9616 29.947 21.9603 29.9519L22.4249 30.0747ZM22.425 30.074L22.8851 30.2126C22.9615 29.9588 22.8181 29.6911 22.5645 29.6142C22.3109 29.5373 22.0429 29.6803 21.9655 29.9337L22.425 30.074ZM33.6024 18.7687L34.0827 18.757C34.0763 18.492 33.8564 18.2823 33.5913 18.2884C33.3262 18.2945 33.1162 18.5142 33.122 18.7792L33.6024 18.7687ZM33.6024 18.7696L33.1221 18.7825C33.1225 18.7965 33.1235 18.8105 33.1251 18.8245L33.6024 18.7696ZM39.6058 10.5086L39.4642 10.9678C39.587 11.0057 39.6854 11.087 39.7595 11.1857L40.1438 10.8973L40.528 10.6088C40.3646 10.3911 40.1098 10.1613 39.7474 10.0495L39.6058 10.5086ZM40.1438 10.8973L39.7595 11.1857C39.9048 11.3792 39.969 11.6554 39.9451 11.8799L40.4229 11.9307L40.9007 11.9815C40.9477 11.5397 40.8333 11.0155 40.528 10.6088L40.1438 10.8973ZM40.4229 11.9307L39.9456 11.9856L39.9456 11.9857L40.4229 11.9308L40.9002 11.8758L40.9002 11.8757L40.4229 11.9307ZM40.4229 11.9308L39.9451 11.8799C39.7878 13.3569 38.811 14.8209 37.9422 15.947L38.3226 16.2405L38.703 16.534C39.5713 15.4087 40.7119 13.7541 40.9007 11.9817L40.4229 11.9308ZM38.3226 16.2405L37.8711 16.0761L37.8711 16.0762L38.3226 16.2405L38.7741 16.4048L38.7741 16.4048L38.3226 16.2405ZM38.3226 16.2405L37.9422 15.947C37.0368 17.1203 35.8688 18.0559 34.5404 18.7016L34.7504 19.1337L34.9604 19.5659C36.418 18.8575 37.704 17.8286 38.703 16.5341L38.3226 16.2405ZM34.7504 19.1337L34.2719 19.0903C34.2614 19.2054 34.2444 19.346 34.2165 19.5069L34.69 19.589L35.1634 19.671C35.1961 19.4822 35.2163 19.3157 35.2289 19.1772L34.7504 19.1337ZM34.69 19.589L34.2165 19.5069C34.1371 19.9655 33.9698 20.5913 33.6182 21.2625L34.0439 21.4855L34.4695 21.7084C34.8765 20.9314 35.0706 20.2064 35.1634 19.671L34.69 19.589ZM34.0439 21.4855L33.6182 21.2625C32.9466 22.5448 31.6095 23.9787 28.9623 24.7351L29.0943 25.1971L29.2263 25.6591C32.1302 24.8293 33.6776 23.2203 34.4695 21.7084L34.0439 21.4855ZM29.0943 25.1971L28.6149 25.1656C28.6075 25.2786 28.5954 25.4103 28.5758 25.5567L29.052 25.6206L29.5282 25.6844C29.551 25.5143 29.5651 25.3608 29.5738 25.2286L29.0943 25.1971ZM29.052 25.6206L28.5758 25.5567C28.5103 26.0453 28.3612 26.7025 28.0264 27.3745L28.4565 27.5888L28.8866 27.803C29.2807 27.0119 29.4528 26.2465 29.5282 25.6844L29.052 25.6206ZM28.4565 27.5888L28.0264 27.3745C27.3799 28.6726 26.0501 30.0058 23.3481 30.3098L23.4018 30.7873L23.4555 31.2647C26.4922 30.9231 28.0995 29.3831 28.8866 27.803L28.4565 27.5888ZM23.4018 30.7873L22.9585 30.602C22.8963 30.7508 22.8086 30.9418 22.6906 31.1587L23.1126 31.3884L23.5346 31.6181C23.6703 31.3687 23.7719 31.1477 23.8451 30.9725L23.4018 30.7873ZM23.1126 31.3884L22.6906 31.1587C22.4099 31.6746 21.9564 32.3405 21.2657 32.9399L21.5805 33.3028L21.8954 33.6657C22.6939 32.9729 23.2139 32.2073 23.5346 31.6181L23.1126 31.3884ZM21.5805 33.3028L21.2657 32.9399C19.8787 34.1432 17.5515 35.0634 13.7926 33.9999L13.6618 34.4622L13.531 34.9245C17.5727 36.0681 20.242 35.1002 21.8954 33.6657L21.5805 33.3028ZM13.6618 34.4622L13.7927 33.9999C13.7934 34.0001 13.7936 34.0002 13.7914 33.9995L13.6546 34.4601L13.5179 34.9207C13.5205 34.9215 13.5254 34.923 13.531 34.9245L13.6618 34.4622ZM13.6546 34.4601L14.1152 34.5969L14.2812 34.038L13.8206 33.9013L13.36 33.7645L13.194 34.3234L13.6546 34.4601ZM13.8206 33.9013L13.36 33.7644L13.2147 34.2534L13.6753 34.3902L14.1359 34.5271L14.2812 34.0381L13.8206 33.9013ZM13.6753 34.3902L13.2148 34.2531C13.205 34.2862 13.2 34.3027 13.1975 34.3109C13.1962 34.3154 13.1961 34.3156 13.1966 34.3141C13.1967 34.3135 13.1971 34.3123 13.1977 34.3107C13.1981 34.3093 13.1991 34.3062 13.2005 34.3022C13.2014 34.2996 13.205 34.2893 13.2103 34.2764C13.2129 34.2701 13.2186 34.2566 13.2271 34.2401C13.2316 34.2315 13.2383 34.219 13.2474 34.2045C13.2561 34.1906 13.2706 34.1691 13.2915 34.145L13.6543 34.46L14.0172 34.775C14.0549 34.7315 14.0756 34.6914 14.0815 34.6799C14.0901 34.6633 14.0958 34.6498 14.0984 34.6434C14.1038 34.6304 14.1074 34.62 14.1084 34.6172C14.1109 34.6099 14.1128 34.6039 14.1132 34.6026C14.1145 34.5983 14.116 34.5935 14.1174 34.5889C14.1205 34.5787 14.1259 34.5605 14.1358 34.5274L13.6753 34.3902ZM13.6543 34.46L13.7913 33.9995C13.7861 33.9979 13.7818 33.9967 13.7785 33.9959C13.7752 33.995 13.7724 33.9943 13.7703 33.9937C13.7662 33.9927 13.7629 33.9919 13.7614 33.9916C13.7597 33.9912 13.7584 33.9909 13.7582 33.9909C13.7575 33.9907 13.7584 33.9909 13.7587 33.991C13.7597 33.9912 13.7634 33.992 13.7682 33.9932C13.7727 33.9943 13.7809 33.9964 13.7911 33.9994L13.6539 34.4599L13.5167 34.9204C13.5269 34.9234 13.5353 34.9255 13.5399 34.9267C13.5447 34.9278 13.5485 34.9287 13.5496 34.9289C13.5499 34.929 13.5509 34.9292 13.5502 34.9291C13.55 34.929 13.5487 34.9287 13.5471 34.9284C13.5456 34.928 13.5424 34.9273 13.5383 34.9263C13.5362 34.9257 13.5334 34.925 13.5301 34.9241C13.5269 34.9233 13.5225 34.9221 13.5173 34.9205L13.6543 34.46ZM13.6539 34.4599L13.7911 33.9994C13.7951 34.0006 13.7982 34.0016 13.7996 34.002C13.8009 34.0024 13.8022 34.0029 13.8015 34.0026C13.8012 34.0026 13.7965 34.001 13.7905 33.9992L13.6528 34.4596L13.5151 34.9199C13.5122 34.919 13.5098 34.9182 13.5081 34.9177C13.5066 34.9172 13.5053 34.9168 13.5053 34.9168C13.5048 34.9167 13.5063 34.9171 13.5077 34.9176C13.5093 34.9181 13.5126 34.9191 13.5167 34.9204L13.6539 34.4599ZM13.6528 34.4596L13.7905 33.9992C13.7898 33.999 13.7891 33.9988 13.7887 33.9987C13.7885 33.9986 13.7883 33.9986 13.7882 33.9986C13.7881 33.9985 13.788 33.9985 13.788 33.9985C13.7877 33.9984 13.788 33.9985 13.7884 33.9986L13.6497 34.4586L13.511 34.9186C13.5127 34.9192 13.5141 34.9196 13.5149 34.9198C13.5161 34.9202 13.5155 34.92 13.5151 34.9199L13.6528 34.4596ZM13.6497 34.4586L13.7884 33.9986C13.7846 33.9975 13.7831 33.997 13.7803 33.9961L13.6395 34.4556L13.4988 34.915C13.5044 34.9167 13.5097 34.9183 13.511 34.9186L13.6497 34.4586ZM13.6395 34.4556L13.7803 33.9961C13.7736 33.9941 13.7633 33.9909 13.7493 33.9865L13.6044 34.4446L13.4594 34.9027C13.4753 34.9077 13.4886 34.9118 13.4988 34.915L13.6395 34.4556ZM13.6044 34.4446L13.7493 33.9865C13.7223 33.9779 13.6828 33.9651 13.6323 33.9481L13.4784 34.4032L13.3244 34.8584C13.3812 34.8776 13.4267 34.8923 13.4594 34.9027L13.6044 34.4446ZM13.4784 34.4032L13.6323 33.9481C13.5313 33.9139 13.3863 33.8626 13.2094 33.7934L13.0345 34.2409L12.8596 34.6885C13.0519 34.7636 13.211 34.82 13.3244 34.8584L13.4784 34.4032ZM13.0345 34.2409L13.2094 33.7934C12.8558 33.6552 12.3736 33.4456 11.8594 33.1599L11.6261 33.5799L11.3927 33.9999C11.9536 34.3115 12.4767 34.5388 12.8596 34.6885L13.0345 34.2409ZM11.6261 33.5799L11.8594 33.1599C10.9135 32.6343 9.83774 31.8392 9.2751 30.7405L8.84744 30.9595L8.41978 31.1785C9.11233 32.5309 10.3885 33.4419 11.3927 33.9999L11.6261 33.5799ZM8.84744 30.9595L8.93558 30.4872C8.20638 30.3511 7.47755 30.1077 6.75571 29.7689L6.55156 30.2038L6.34741 30.6388C7.13384 31.0079 7.94043 31.2791 8.7593 31.4319L8.84744 30.9595ZM6.55156 30.2038L6.7159 29.7523L6.7158 29.7523L6.55147 30.2038L6.38714 30.6553L6.38723 30.6553L6.55156 30.2038ZM6.55147 30.2038L6.75568 29.7689C5.68275 29.2651 4.76401 28.4094 4.18088 27.3805L3.76286 27.6174L3.34484 27.8543C4.02521 29.0548 5.09265 30.0496 6.34726 30.6387L6.55147 30.2038ZM3.76286 27.6174L4.18088 27.3805C2.97492 25.2525 3.04518 22.6307 3.8257 20.3957L3.37208 20.2373L2.91847 20.0789C2.07648 22.4899 1.96326 25.4165 3.34485 27.8543L3.76286 27.6174ZM3.37208 20.2373L3.82504 20.3976L3.84494 20.3413L3.39197 20.1811L2.93901 20.0208L2.91912 20.077L3.37208 20.2373ZM3.39197 20.1811L3.84444 20.3427C4.24015 19.2353 4.86788 18.2716 5.64508 17.3972L5.28595 17.078L4.92683 16.7588C4.08695 17.7037 3.38539 18.7715 2.93951 20.0194L3.39197 20.1811ZM5.28595 17.078L5.48901 17.5135L5.48908 17.5134L5.28602 17.078L5.08296 16.6425L5.08289 16.6425L5.28595 17.078ZM5.28602 17.078L5.64512 17.3972C6.63819 16.2801 7.85864 15.383 9.18988 14.7154L8.97448 14.2859L8.75908 13.8564C7.33128 14.5725 6.00965 15.5408 4.92692 16.7587L5.28602 17.078ZM8.97448 14.2859L9.1899 14.7154C13.3909 12.6082 18.2856 12.9092 22.7947 13.2599L22.8319 12.7808L22.8692 12.3018C18.4 11.9542 13.2351 11.6113 8.75906 13.8564L8.97448 14.2859ZM22.8319 12.7808L22.7958 13.26L22.9837 13.2741L23.0199 12.795L23.056 12.3159L22.8681 12.3017L22.8319 12.7808ZM23.0199 12.795L22.9848 13.2742C26.9787 13.566 31.093 13.2804 34.9858 12.3474L34.8738 11.8802L34.7618 11.4129C30.9727 12.3211 26.9581 12.601 23.0549 12.3158L23.0199 12.795ZM34.8738 11.8802L34.7095 12.3317L34.7095 12.3317L34.8739 11.8802L35.0382 11.4287L35.0382 11.4287L34.8738 11.8802ZM34.8739 11.8802L34.9858 12.3475C36.3764 12.0143 37.7465 11.5841 39.052 11.0046L38.8571 10.5655L38.6621 10.1263C37.4225 10.6766 36.1105 11.0899 34.7619 11.4129L34.8739 11.8802ZM38.8571 10.5655L39.052 11.0046C39.2005 10.9387 39.3399 10.9295 39.4642 10.9678L39.6058 10.5086L39.7473 10.0495C39.3698 9.93308 38.9906 9.98049 38.6621 10.1263L38.8571 10.5655ZM33.6024 18.7697L33.1231 18.8029L33.1231 18.8034L33.6025 18.7702L34.0818 18.737L34.0818 18.7365L33.6024 18.7697ZM33.6025 18.7702L34.0827 18.7566C34.0816 18.715 34.1056 18.6769 34.1436 18.66L33.9488 18.2208L33.754 17.7816C33.3595 17.9566 33.11 18.3525 33.1222 18.7837L33.6025 18.7702ZM33.9488 18.2208L34.1436 18.66C35.5719 18.0265 36.8254 17.0586 37.7798 15.8217L37.3995 15.5282L37.0191 15.2346C36.1654 16.3408 35.0412 17.2106 33.754 17.7816L33.9488 18.2208ZM37.3995 15.5282L37.7799 15.8217C38.6489 14.6954 39.5906 13.2721 39.7412 11.8581L39.2635 11.8073L38.7857 11.7564C38.6666 12.8743 37.8897 14.1063 37.019 15.2347L37.3995 15.5282ZM39.2635 11.8073L39.715 11.9716L39.715 11.9715L39.2635 11.8072L38.812 11.6429L38.812 11.6429L39.2635 11.8073ZM39.2635 11.8072L39.7413 11.8575C39.7504 11.7711 39.7426 11.671 39.7173 11.5725L39.2519 11.6922L38.7866 11.812C38.7858 11.8088 38.785 11.8047 38.7845 11.7987C38.7843 11.7956 38.784 11.7911 38.784 11.785C38.784 11.7793 38.7843 11.7698 38.7856 11.7569L39.2635 11.8072ZM39.2519 11.6922L39.7173 11.5725C39.7118 11.5511 39.7061 11.5331 39.7021 11.5206L39.245 11.6686L38.7879 11.8165C38.7886 11.8188 38.7878 11.8166 38.7866 11.812L39.2519 11.6922ZM39.245 11.6686L39.0521 11.2285C37.7577 11.7958 36.4038 12.2185 35.0336 12.5468L35.1456 13.014L35.2575 13.4813C36.669 13.1431 38.0793 12.704 39.4378 12.1086L39.245 11.6686ZM35.1456 13.014L35.0336 12.5468C31.0566 13.4999 26.8518 13.7808 22.7788 13.4642L22.7416 13.9433L22.7043 14.4223C26.8693 14.7461 31.1753 14.4597 35.2576 13.4813L35.1456 13.014ZM22.7416 13.9433L22.2901 13.7789L22.29 13.779L22.7416 13.9433L23.1931 14.1077L23.1931 14.1076L22.7416 13.9433ZM22.7416 13.9433L22.7788 13.4643C18.2611 13.113 13.4242 12.8209 9.28184 14.8987L9.49727 15.3281L9.71269 15.7576C13.5797 13.818 18.1456 14.0678 22.7043 14.4224L22.7416 13.9433ZM9.49727 15.3281L9.29421 14.8927L9.29414 14.8927L9.4972 15.3282L9.70026 15.7636L9.70033 15.7636L9.49727 15.3281ZM9.4972 15.3282L9.28181 14.8987C7.97119 15.556 6.77228 16.4378 5.79835 17.5333L6.15744 17.8525L6.51654 18.1718C7.40081 17.1771 8.49852 16.3665 9.7126 15.7577L9.4972 15.3282ZM6.15744 17.8525L5.72198 18.0556L5.72201 18.0557L6.15747 17.8526L6.59293 17.6495L6.59291 17.6495L6.15744 17.8525ZM6.15747 17.8526L5.79834 17.5334C5.04674 18.379 4.44195 19.3043 4.05588 20.3608L4.50718 20.5257L4.95847 20.6906C5.29437 19.7713 5.8266 18.9481 6.5166 18.1718L6.15747 17.8526ZM4.50718 20.5257L4.05466 20.3642L4.0204 20.4602L4.47291 20.6217L4.92543 20.7832L4.95969 20.6872L4.50718 20.5257ZM4.47291 20.6217L4.0185 20.4656L3.98446 20.5646L4.43888 20.7208L4.89329 20.8769L4.92733 20.7778L4.47291 20.6217ZM4.43888 20.7208L3.98361 20.5671C3.25043 22.7401 3.20894 25.2496 4.35928 27.2794L4.77729 27.0425L5.19531 26.8056C4.2177 25.0806 4.22034 22.8714 4.89414 20.8744L4.43888 20.7208ZM4.77729 27.0425L4.35927 27.2794C4.92164 28.2717 5.80863 29.0977 6.84282 29.5833L7.04703 29.1483L7.25125 28.7134C6.39873 28.3131 5.66044 27.6263 5.19531 26.8056L4.77729 27.0425ZM7.04703 29.1483L7.21137 28.6968L7.21132 28.6968L7.04699 29.1483L6.88265 29.5998L6.8827 29.5999L7.04703 29.1483ZM7.04699 29.1483L6.84284 29.5833C7.64006 29.9575 8.44589 30.214 9.25503 30.333L9.3249 29.8576L9.39477 29.3822C8.6918 29.2789 7.97624 29.0537 7.25114 28.7134L7.04699 29.1483ZM9.3249 29.8576L9.25965 30.3336C9.26065 30.3338 9.26153 30.3339 9.26229 30.334L9.33995 29.8599L9.41762 29.3857C9.40837 29.3842 9.39921 29.3828 9.39015 29.3816L9.3249 29.8576ZM9.33995 29.8599L9.27114 30.3354C10.5426 30.5194 11.8076 30.3606 13.0387 29.8037L12.8406 29.3659L12.6426 28.9282C11.5836 29.4072 10.5044 29.5429 9.40877 29.3843L9.33995 29.8599ZM12.8406 29.3659L12.6763 29.8174L12.6764 29.8174L12.8407 29.3659L13.005 28.9144L13.005 28.9144L12.8406 29.3659ZM12.8407 29.3659L13.0387 29.8037C15.1281 28.8587 16.4075 26.8365 16.4317 24.4849L15.9513 24.4799L15.4708 24.475C15.4503 26.47 14.376 28.1442 12.6427 28.9282L12.8407 29.3659ZM15.9513 24.4799L16.4317 24.4846C16.4338 24.2661 16.4233 24.0476 16.4002 23.8303L15.9224 23.8813L15.4446 23.9323C15.4638 24.1124 15.4726 24.2938 15.4708 24.4753L15.9513 24.4799ZM15.9224 23.8813L16.3579 23.6783L16.3578 23.6781L15.9223 23.8812L15.4869 24.0843L15.4869 24.0844L15.9224 23.8813ZM15.9223 23.8812L16.4001 23.8303C16.189 21.8464 14.9989 20.0308 13.0249 19.5357L12.908 20.0018L12.7912 20.4678C14.2697 20.8386 15.2634 22.2301 15.4446 23.932L15.9223 23.8812ZM12.908 20.0018L12.4726 20.2048L12.4726 20.2049L12.9081 20.0018L13.3435 19.7988L13.3435 19.7987L12.908 20.0018ZM12.9081 20.0018L13.0248 19.5358C11.4316 19.1365 9.56444 19.6392 8.77261 21.1378L9.19743 21.3623L9.62226 21.5867C10.1454 20.5966 11.4838 20.1403 12.7913 20.4679L12.9081 20.0018ZM9.19743 21.3623L8.74593 21.1979L8.74591 21.198L9.19742 21.3623L9.64892 21.5267L9.64894 21.5266L9.19743 21.3623ZM9.19742 21.3623L8.77261 21.1378C8.18226 22.2549 8.43252 23.2051 8.84976 23.8067L9.24457 23.5328L9.63939 23.259C9.40097 22.9152 9.21969 22.3485 9.62223 21.5868L9.19742 21.3623ZM9.24457 23.5328L8.85155 23.8092L8.86725 23.8315L9.26027 23.5552L9.65329 23.2788L9.6376 23.2564L9.24457 23.5328ZM9.26027 23.5552L8.96159 23.9315L8.96171 23.9316L9.26039 23.5552L9.55907 23.1789L9.55895 23.1788L9.26027 23.5552ZM9.26039 23.5552L8.86938 23.8345C9.1621 24.2444 9.5092 24.4522 9.78218 24.558L9.95582 24.11L10.1295 23.662C10.0008 23.6122 9.81772 23.5089 9.6514 23.276L9.26039 23.5552ZM9.95582 24.11L9.78219 24.558C9.91878 24.611 10.0369 24.6384 10.1202 24.6525L10.2005 24.1788L10.2808 23.7051C10.2512 23.7 10.1968 23.6881 10.1295 23.662L9.95582 24.11ZM10.2005 24.1788L10.1202 24.6525C10.162 24.6596 10.1948 24.6633 10.2164 24.6652L10.2589 24.1866L10.3014 23.708C10.3025 23.7081 10.2951 23.7075 10.2808 23.7051L10.2005 24.1788ZM10.2589 24.1866L10.2164 24.6652C10.2214 24.6656 10.2257 24.666 10.2293 24.6662C10.2311 24.6664 10.2327 24.6665 10.234 24.6666C10.2347 24.6666 10.2353 24.6667 10.2356 24.6667C10.2362 24.6667 10.2355 24.6667 10.2351 24.6667C10.235 24.6666 10.2343 24.6666 10.2333 24.6665C10.233 24.6665 10.2316 24.6664 10.2299 24.6663C10.2292 24.6662 10.227 24.6661 10.2243 24.6658C10.2228 24.6657 10.219 24.6653 10.2166 24.6651C10.2124 24.6646 10.1983 24.6628 10.1884 24.6613C10.1401 24.6508 9.78705 24.1535 10.1575 23.7192C10.2017 23.7111 10.256 23.7068 10.2656 23.7067C10.2698 23.7067 10.2762 23.7068 10.2785 23.7069C10.28 23.7069 10.2825 23.707 10.2835 23.707C10.2868 23.7071 10.2895 23.7073 10.2896 23.7073C10.291 23.7073 10.292 23.7074 10.2921 23.7074L10.2663 24.1872L10.2406 24.667C10.2407 24.667 10.2417 24.667 10.2431 24.6671C10.2432 24.6671 10.2459 24.6672 10.2492 24.6674C10.2502 24.6674 10.2527 24.6675 10.2542 24.6675C10.2565 24.6676 10.2629 24.6677 10.2671 24.6677C10.2767 24.6676 10.331 24.6633 10.3752 24.6552C10.7457 24.2208 10.3926 23.7236 10.3443 23.7131C10.3344 23.7116 10.3203 23.7097 10.3161 23.7093C10.3137 23.709 10.3099 23.7087 10.3084 23.7086C10.3057 23.7083 10.3035 23.7081 10.3028 23.7081C10.3011 23.708 10.2997 23.7079 10.2994 23.7078C10.2984 23.7078 10.2977 23.7077 10.2976 23.7077C10.2972 23.7077 10.2964 23.7076 10.2969 23.7077C10.2972 23.7077 10.2975 23.7077 10.2979 23.7077C10.2987 23.7078 10.2993 23.7078 10.2999 23.7079C10.3009 23.708 10.3014 23.708 10.3014 23.708L10.2589 24.1866ZM10.2663 24.1872L10.292 23.7074C10.2927 23.7074 10.2932 23.7075 10.2934 23.7075C10.2937 23.7075 10.2939 23.7075 10.294 23.7075C10.2941 23.7075 10.2943 23.7075 10.2941 23.7075C10.2939 23.7075 10.2936 23.7075 10.2931 23.7075C10.2922 23.7074 10.2911 23.7073 10.2898 23.7073C10.2873 23.7072 10.2846 23.707 10.2816 23.7069L10.2639 24.1871L10.2462 24.6672C10.2447 24.6672 10.2432 24.6671 10.2415 24.667C10.2407 24.667 10.2399 24.6669 10.2392 24.6669C10.2388 24.6669 10.2385 24.6669 10.2385 24.6669C10.2383 24.6668 10.2385 24.6669 10.2387 24.6669C10.2388 24.6669 10.239 24.6669 10.2392 24.6669C10.2395 24.6669 10.24 24.6669 10.2407 24.667L10.2663 24.1872ZM10.2639 24.1871L10.2816 23.7069C10.2797 23.7069 10.2775 23.7068 10.2749 23.7067L10.2611 24.187L10.2472 24.6673L10.2462 24.6672L10.2639 24.1871ZM10.2611 24.187L10.2749 23.7067C10.2933 23.7072 10.308 23.7087 10.316 23.7097C10.3202 23.7101 10.3235 23.7106 10.3254 23.7108C10.3271 23.7111 10.3286 23.7113 10.3282 23.7112C10.3281 23.7112 10.3277 23.7111 10.3271 23.7111C10.3265 23.711 10.3256 23.7109 10.3244 23.7107C10.3222 23.7104 10.3187 23.7099 10.3143 23.7095C10.3058 23.7085 10.2915 23.7071 10.2737 23.7066L10.2605 24.1869L10.2473 24.6672C10.2296 24.6667 10.2154 24.6653 10.207 24.6644C10.2026 24.6639 10.1991 24.6635 10.197 24.6632C10.1959 24.663 10.195 24.6629 10.1944 24.6628C10.1938 24.6627 10.1934 24.6627 10.1934 24.6627C10.193 24.6626 10.1946 24.6628 10.1963 24.6631C10.1982 24.6633 10.2016 24.6638 10.2059 24.6643C10.214 24.6652 10.2287 24.6667 10.2472 24.6673L10.2611 24.187ZM10.2605 24.1869L10.2477 24.6672C10.3039 24.6687 10.3486 24.7155 10.3474 24.7719L10.8278 24.782L11.3081 24.792C11.3204 24.2069 10.8577 23.7222 10.2733 23.7066L10.2605 24.1869ZM10.8278 24.782L10.3474 24.7719C10.3462 24.8285 10.2993 24.8734 10.2427 24.8722L10.2327 25.3526L10.2226 25.833C10.8098 25.8453 11.2958 25.3792 11.3081 24.7921L10.8278 24.782ZM10.2327 25.3526L10.713 25.3627L10.7252 24.7798L10.2449 24.7697L9.7645 24.7597L9.75229 25.3426L10.2327 25.3526ZM10.2449 24.7697L9.7645 24.7597C9.75845 25.0483 9.75534 25.1937 9.7537 25.2668C9.75287 25.3038 9.75244 25.3212 9.75222 25.3293C9.75207 25.3345 9.7521 25.3323 9.75231 25.3281C9.75238 25.3266 9.75253 25.3235 9.7528 25.3196C9.75301 25.3165 9.75362 25.3077 9.75495 25.2964C9.7552 25.2943 9.75922 25.2536 9.7748 25.2052C9.78221 25.1822 9.80451 25.1168 9.85952 25.0492C9.89015 25.0116 9.93245 24.9714 9.98882 24.9383C10.0463 24.9045 10.1032 24.8871 10.1522 24.8788L10.2321 25.3526L10.312 25.8264C10.4295 25.8066 10.5327 25.7445 10.6047 25.656C10.6597 25.5884 10.682 25.523 10.6894 25.5C10.7051 25.4515 10.7091 25.4107 10.7094 25.4084C10.7107 25.3969 10.7113 25.3878 10.7116 25.3844C10.7119 25.38 10.7121 25.3765 10.7122 25.3744C10.7125 25.3675 10.7127 25.3604 10.7128 25.3561C10.7131 25.345 10.7136 25.325 10.7144 25.2883C10.7161 25.2144 10.7192 25.0683 10.7252 24.7798L10.2449 24.7697ZM10.2321 25.3526L10.2427 24.8722L10.2424 24.8722L10.2315 25.3526L10.2205 25.833L10.2215 25.833L10.2321 25.3526ZM10.2315 25.3526L10.2425 24.8722C10.2462 24.8723 10.2492 24.8724 10.2509 24.8725C10.2524 24.8726 10.2537 24.8726 10.2534 24.8726C10.2534 24.8726 10.2532 24.8726 10.2531 24.8726C10.253 24.8726 10.2528 24.8726 10.2526 24.8726C10.2521 24.8726 10.2513 24.8725 10.2504 24.8725C10.2487 24.8724 10.2457 24.8723 10.2421 24.8722L10.2302 25.3525L10.2183 25.8329C10.2149 25.8328 10.2122 25.8327 10.2106 25.8326C10.2092 25.8326 10.208 25.8325 10.2083 25.8325C10.2083 25.8325 10.2087 25.8325 10.2092 25.8326C10.2097 25.8326 10.2105 25.8326 10.2115 25.8327C10.2133 25.8327 10.2165 25.8329 10.2205 25.8329L10.2315 25.3526ZM10.2302 25.3525L10.2422 24.8722L10.2413 24.8722L10.2275 25.3525L10.2136 25.8328C10.2166 25.8329 10.2191 25.8329 10.2197 25.8329C10.2211 25.8329 10.2196 25.8329 10.2182 25.8329L10.2302 25.3525ZM10.2275 25.3525L10.2413 24.8722C10.2428 24.8722 10.2437 24.8723 10.2429 24.8723C10.2429 24.8723 10.2404 24.8722 10.2387 24.8721L10.221 25.3522L10.2033 25.8324C10.204 25.8324 10.2037 25.8324 10.2059 25.8325C10.2072 25.8326 10.2102 25.8327 10.2136 25.8328L10.2275 25.3525ZM10.221 25.3522L10.2387 24.8721C10.2346 24.8719 10.2321 24.8718 10.2298 24.8717L10.2041 25.3515L10.1785 25.8313C10.189 25.8319 10.1978 25.8322 10.2033 25.8324L10.221 25.3522ZM10.2041 25.3515L10.2298 24.8717C10.2222 24.8713 10.2116 24.8706 10.1983 24.8694L10.1558 25.348L10.1133 25.8266C10.1384 25.8289 10.1602 25.8303 10.1785 25.8313L10.2041 25.3515ZM10.1558 25.348L10.1983 24.8694C10.1715 24.8671 10.1333 24.8627 10.0859 24.8546L10.0056 25.3284L9.92535 25.8021C9.99965 25.8147 10.0631 25.8222 10.1133 25.8266L10.1558 25.348ZM10.0056 25.3284L10.0859 24.8546C9.99138 24.8386 9.85963 24.8079 9.70812 24.7492L9.53448 25.1972L9.36085 25.6452C9.58162 25.7308 9.77716 25.777 9.92535 25.8021L10.0056 25.3284ZM9.53448 25.1972L9.70812 24.7492C9.40454 24.6315 9.02238 24.4015 8.7026 23.9537L8.3116 24.233L7.9206 24.5122C8.3671 25.1374 8.9135 25.4718 9.36085 25.6452L9.53448 25.1972ZM8.3116 24.233L8.70254 23.9536C8.23593 23.3006 7.94995 22.2557 8.59135 21.042L8.16655 20.8175L7.74174 20.593C6.90731 22.172 7.27285 23.6056 7.92066 24.5123L8.3116 24.233ZM8.16655 20.8175L8.59137 21.042C9.44123 19.4336 11.4223 18.9228 13.0747 19.3369L13.1915 18.8708L13.3083 18.4048C11.3793 17.9214 8.86375 18.4696 7.74172 20.5931L8.16655 20.8175ZM13.1915 18.8708L13.2464 19.3482L13.2465 19.3482L13.1916 18.8708L13.1366 18.3935L13.1365 18.3935L13.1915 18.8708ZM13.1916 18.8708L13.0747 19.3369C15.155 19.8586 16.3865 21.7653 16.604 23.8085L17.0818 23.7576L17.5596 23.7068C17.3126 21.3863 15.8878 19.0516 13.3085 18.4048L13.1916 18.8708ZM17.0818 23.7576L16.6037 23.8051L16.6127 23.8965L17.0909 23.8491L17.569 23.8016L17.5599 23.7102L17.0818 23.7576ZM17.0909 23.8491L16.6124 23.8931C16.6305 24.0903 16.6387 24.2885 16.6367 24.4866L17.1172 24.4913L17.5977 24.4959C17.5999 24.2653 17.5904 24.0347 17.5693 23.805L17.0909 23.8491ZM17.1172 24.4913L16.6369 24.4782L16.6369 24.4785L17.1172 24.4916L17.5975 24.5047L17.5975 24.5044L17.1172 24.4913ZM17.1172 24.4916L16.6367 24.4867C16.6119 26.9145 15.2887 29.0109 13.1232 29.9904L13.3212 30.4282L13.5192 30.866C16.0412 29.7253 17.5691 27.2805 17.5976 24.4965L17.1172 24.4916ZM13.3212 30.4282L13.1232 29.9905C12.1946 30.4105 11.2588 30.6064 10.3265 30.6134L10.3301 31.0938L10.3337 31.5743C11.3999 31.5663 12.4682 31.3415 13.5192 30.866L13.3212 30.4282ZM10.3301 31.0938L9.96064 31.401C10.5121 32.0643 11.2528 32.5883 11.959 32.9807L12.1924 32.5607L12.4257 32.1407C11.7768 31.7801 11.1471 31.3249 10.6996 30.7867L10.3301 31.0938ZM12.1924 32.5607L11.959 32.9807C12.4632 33.2608 12.9366 33.4667 13.284 33.6025L13.459 33.155L13.6339 32.7074C13.3157 32.5831 12.8832 32.3949 12.4257 32.1407L12.1924 32.5607ZM13.459 33.155L13.284 33.6025C13.4577 33.6703 13.5997 33.7206 13.698 33.7539L13.8519 33.2987L14.0058 32.8435C13.92 32.8145 13.7921 32.7693 13.6339 32.7074L13.459 33.155ZM13.8519 33.2987L13.698 33.7539C13.7468 33.7704 13.785 33.7828 13.8111 33.791L13.956 33.3329L14.101 32.8748C14.0811 32.8685 14.0489 32.8581 14.0058 32.8435L13.8519 33.2987ZM13.956 33.3329L13.8111 33.791C13.8251 33.7954 13.8358 33.7987 13.8403 33.8001L13.9811 33.3407L14.1218 32.8813C14.116 32.8795 14.1099 32.8776 14.101 32.8748L13.956 33.3329ZM13.9811 33.3407L13.8403 33.8001C13.8452 33.8016 13.8491 33.8027 13.8509 33.8032C13.8513 33.8033 13.8517 33.8034 13.8517 33.8035C13.8519 33.8035 13.8517 33.8035 13.8515 33.8034C13.8512 33.8033 13.8491 33.8027 13.8463 33.8018L13.9855 33.342L14.1247 32.8821C14.1214 32.8811 14.1187 32.8803 14.1178 32.8801C14.1172 32.8799 14.1168 32.8798 14.1166 32.8797C14.1163 32.8796 14.1164 32.8797 14.1164 32.8797C14.1167 32.8798 14.1189 32.8804 14.1218 32.8813L13.9811 33.3407ZM13.9855 33.342L13.8549 33.8044C17.5496 34.848 19.802 33.9384 21.1313 32.785L20.8164 32.4221L20.5016 32.0592C19.4381 32.9818 17.5275 33.8432 14.1161 32.8796L13.9855 33.342ZM20.8164 32.4221L21.1313 32.785C21.7991 32.2056 22.2383 31.5609 22.5105 31.0607L22.0884 30.8311L21.6664 30.6014C21.4342 31.0281 21.0617 31.5731 20.5016 32.0592L20.8164 32.4221ZM22.0884 30.8311L22.5105 31.0607C22.6465 30.8108 22.7406 30.5974 22.8005 30.447L22.3541 30.2692L21.9077 30.0914C21.86 30.2112 21.7818 30.3894 21.6664 30.6014L22.0884 30.8311ZM22.3541 30.2692L22.8005 30.447C22.8304 30.372 22.8518 30.3126 22.8657 30.2722L22.4112 30.1163L21.9567 29.9605C21.9476 29.9868 21.9316 30.0315 21.9077 30.0914L22.3541 30.2692ZM22.4112 30.1163L22.8657 30.2722C22.8726 30.2518 22.8776 30.2364 22.8808 30.2265L22.423 30.0807L21.9651 29.935C21.9639 29.9389 21.9611 29.9475 21.9567 29.9605L22.4112 30.1163ZM22.423 30.0807L22.8808 30.2265C22.8811 30.2256 22.8816 30.224 22.8819 30.223C22.8822 30.222 22.8829 30.2198 22.8837 30.2174L22.4247 30.0752L21.9657 29.9331C21.9661 29.9318 21.9664 29.931 21.9661 29.9319C21.9658 29.9327 21.9657 29.9333 21.9651 29.935L22.423 30.0807ZM22.4247 30.0752L22.8853 30.2119C22.8974 30.1712 22.9334 30.1421 22.9759 30.1389L22.9397 29.6598L22.9035 29.1807C22.4635 29.2139 22.0897 29.5155 21.9641 29.9385L22.4247 30.0752ZM22.9397 29.6598L22.9759 30.1389C24.397 30.0316 25.4571 29.6462 26.2466 29.1122C27.0362 28.578 27.5295 27.9124 27.843 27.2832L27.4129 27.069L26.9828 26.8547C26.7298 27.3626 26.3378 27.8903 25.7082 28.3162C25.0783 28.7423 24.185 29.0839 22.9035 29.1807L22.9397 29.6598ZM27.4129 27.069L27.843 27.2832C28.1651 26.6365 28.3091 26.0024 28.3726 25.5295L27.8963 25.4656L27.4201 25.4018C27.3665 25.8013 27.2456 26.3272 26.9828 26.8547L27.4129 27.069ZM27.8963 25.4656L28.3726 25.5295C28.4042 25.2932 28.4157 25.0977 28.4193 24.9617L27.939 24.9491L27.4587 24.9365C27.4559 25.043 27.4466 25.204 27.4201 25.4018L27.8963 25.4656ZM27.939 24.9491L28.4193 24.9617C28.4211 24.8939 28.4209 24.8409 28.4203 24.805L27.9399 24.8134L27.4594 24.8218C27.4598 24.8444 27.46 24.8834 27.4587 24.9365L27.939 24.9491ZM27.9399 24.8134L28.4203 24.805C28.4199 24.7865 28.4195 24.7729 28.4192 24.7647L27.939 24.7826L27.4589 24.8005C27.459 24.804 27.4593 24.8111 27.4594 24.8218L27.9399 24.8134ZM27.939 24.7826L28.4192 24.7647C28.419 24.7597 28.4188 24.7563 28.4188 24.7548L27.9388 24.7772L27.4588 24.7996L27.4589 24.8005L27.939 24.7826ZM27.9388 24.7772L28.3903 24.9415L28.3903 24.9415L27.9388 24.7772L27.4873 24.6128L27.4873 24.6129L27.9388 24.7772ZM27.9388 24.7772L28.4186 24.7517C28.416 24.7026 28.4487 24.6586 28.4965 24.6468L28.3817 24.1803L28.2668 23.7137C27.771 23.8357 27.432 24.2929 27.459 24.8026L27.9388 24.7772ZM28.3817 24.1803L28.4965 24.6468C31.3671 23.9404 32.759 22.4611 33.4366 21.1674L33.011 20.9445L32.5853 20.7216C32.0358 21.7707 30.8706 23.073 28.2668 23.7137L28.3817 24.1803ZM33.011 20.9445L33.4366 21.1674C33.7763 20.5188 33.9379 19.914 34.0145 19.4719L33.5411 19.3899L33.0677 19.3078C33.0044 19.6731 32.8696 20.1788 32.5853 20.7216L33.011 20.9445ZM33.5411 19.3899L34.0145 19.4719C34.0528 19.2509 34.0698 19.0708 34.0773 18.9466L33.5977 18.9178L33.1181 18.889C33.1125 18.9817 33.0992 19.126 33.0677 19.3078L33.5411 19.3899ZM33.5977 18.9178L34.0773 18.9466C34.081 18.8846 34.0824 18.8365 34.0828 18.804L33.6023 18.7978L33.1219 18.7917C33.1217 18.8095 33.1208 18.8426 33.118 18.889L33.5977 18.9178ZM33.6023 18.7978L34.0828 18.804C34.083 18.789 34.083 18.7767 34.0829 18.7677L33.6025 18.772L33.122 18.7762C33.122 18.7761 33.122 18.7774 33.122 18.7803C33.122 18.783 33.122 18.7868 33.1219 18.7917L33.6023 18.7978ZM33.6025 18.772L34.0829 18.7625L34.0828 18.7602L33.6024 18.7697L33.122 18.7791L33.1221 18.7814L33.6025 18.772ZM22.425 30.0743L21.9656 29.9334L21.9657 29.9331L22.4247 30.0752L22.8837 30.2174C22.8841 30.216 22.8844 30.2149 22.8846 30.2144C22.8849 30.2133 22.8845 30.2146 22.8843 30.2153L22.425 30.0743ZM22.4247 30.0752L22.8892 30.198L22.8894 30.1975L22.4249 30.0747L21.9603 29.9519L21.9602 29.9524L22.4247 30.0752ZM22.4249 30.0747L22.8853 30.2121L22.8851 30.2126L22.425 30.074L21.965 29.9355C21.9636 29.9401 21.9625 29.9438 21.9624 29.9444C21.9622 29.9449 21.9618 29.9466 21.9621 29.9454C21.9623 29.9446 21.9632 29.9414 21.9644 29.9373L22.4249 30.0747ZM22.425 30.074L21.9655 29.9337C21.9599 29.9521 21.9564 29.9675 21.9544 29.9774C21.9523 29.9876 21.9509 29.9958 21.9502 30.0005C21.9495 30.0053 21.949 30.009 21.9488 30.0101C21.9488 30.0107 21.9487 30.0112 21.9487 30.011C21.9487 30.011 21.9487 30.0109 21.9487 30.0107C21.9488 30.0105 21.9488 30.0102 21.9489 30.0098C21.9492 30.0074 21.9505 29.998 21.9527 29.986C21.955 29.9737 21.9589 29.9553 21.9656 29.9334L22.425 30.0743L22.8843 30.2152C22.8911 30.1933 22.895 30.1748 22.8973 30.1625C22.8996 30.1504 22.9008 30.1409 22.9012 30.1385C22.9013 30.1378 22.9013 30.1373 22.9013 30.1373C22.9014 30.1371 22.9013 30.1376 22.9012 30.1382C22.9011 30.1392 22.9006 30.1429 22.8998 30.1477C22.8991 30.1524 22.8978 30.1606 22.8957 30.1707C22.8937 30.1806 22.8902 30.1959 22.8846 30.2143L22.425 30.074ZM33.6024 18.7687L33.1221 18.7805C33.122 18.7759 33.1219 18.7724 33.1219 18.7712C33.1219 18.7703 33.1219 18.7687 33.1219 18.7699C33.1219 18.771 33.1219 18.776 33.1221 18.7825L33.6024 18.7696L34.0827 18.7567C34.0829 18.7628 34.0829 18.7675 34.0829 18.7683C34.0829 18.7694 34.0829 18.7677 34.0829 18.7666C34.0829 18.7653 34.0829 18.7617 34.0827 18.757L33.6024 18.7687ZM33.6024 18.7696L33.1251 18.8245L33.1251 18.8246L33.6024 18.7697L34.0798 18.7147L34.0797 18.7146L33.6024 18.7696ZM33.6024 18.7697L34.0828 18.7592L34.0828 18.7583L33.6024 18.7687L33.122 18.7792L33.1221 18.7802L33.6024 18.7697Z" fill="#CFE1FF" mask="url(#path-2-outside-1_130_287)"/>
</svg>
